<?xml version="1.0" encoding="utf-8"?>
<svg viewBox="94.276 131.874 90.348 29.742" xmlns="http://www.w3.org/2000/svg">
  <text style="fill: rgb(255, 255, 255); font-family: Arial, sans-serif; font-size: 16.7px; font-style: italic; font-weight: 700; white-space: pre;" x="98.204" y="144.781"> </text>
  <text style="white-space: pre; fill: rgb(51, 51, 51); font-family: Arial, sans-serif; font-size: 15.7px;" x="158.81" y="132.435"> </text>
  <text style="white-space: pre; fill: rgb(51, 51, 51); font-family: Arial, sans-serif; font-size: 15.7px;" x="130.191" y="150.393"> </text>
  <text style="white-space: pre; fill: rgb(51, 51, 51); font-family: Arial, sans-serif; font-size: 15.7px;" x="113.917" y="128.507"> </text>
  <path d="M 104.50767079165409 154.00099487304686 Q 102.7826707916541 154.00099487304686 101.60089999385755 153.2259948730469 Q 100.41912919606102 152.45099487304688 99.98688800025471 150.9759948730469 Q 99.55464680444841 149.50099487304686 100.07823561041909 147.40099487304687 Q 100.55195881582112 145.50099487304686 101.62889942083223 143.73849487304688 Q 102.70584002584334 141.9759948730469 104.23301582985933 140.56349487304686 Q 105.76019163387532 139.15099487304687 107.64088723622095 138.32599487304688 Q 109.52158283856657 137.50099487304686 111.57158283856657 137.50099487304686 Q 113.07158283856657 137.50099487304686 113.95315203721606 137.9759948730469 Q 114.83472123586554 138.45099487304688 114.60409283323561 139.37599487304686 Q 114.49189523195618 139.82599487304688 114.14531423071229 140.26349487304688 Q 113.7987332294684 140.70099487304688 113.34893482861544 141.00099487304686 Q 112.89913642776249 141.30099487304688 112.4991364277625 141.30099487304688 Q 112.2491364277625 141.30099487304688 112.13030242811789 141.17599487304688 Q 111.04846443060566 140.30099487304688 109.39846443060567 140.30099487304688 Q 107.64846443060567 140.30099487304688 106.24588542829558 141.11349487304688 Q 104.8433064259855 141.92599487304688 103.90044682221829 143.25099487304686 Q 102.95758721845107 144.57599487304688 102.57112881404414 146.12599487304686 Q 101.99144120743375 148.45099487304688 102.96111520352437 149.82599487304688 Q 103.93078919961499 151.20099487304688 106.130789199615 151.20099487304688 Q 107.080789199615 151.20099487304688 107.97435440039688 150.92599487304688 Q 108.86791960117876 150.65099487304687 109.52381680267142 150.12599487304686 Q 110.17971400416408 149.6009948730469 110.36671000629647 148.8509948730469 Q 110.55370600842886 148.1009948730469 110.20343720956613 147.70099487304688 Q 109.8531684107034 147.30099487304688 109.17491741123649 147.11349487304688 Q 108.4966664117696 146.92599487304688 107.65913281191176 146.87599487304686 Q 107.07159921205391 146.82599487304688 106.80903201233824 146.7259948730469 Q 106.54646481262255 146.62599487304686 106.67112881404414 146.12599487304686 Q 106.82072561575005 145.52599487304687 107.29545681688732 145.12599487304686 Q 107.7701880180246 144.7259948730469 108.33265441816675 144.67599487304688 Q 109.10135401838 144.6009948730469 110.16070381848661 144.56349487304686 Q 111.22005361859323 144.52599487304687 112.36067021862877 144.51349487304688 Q 113.50128681866431 144.50099487304686 114.50128681866431 144.50099487304686 Q 114.8262868186643 144.50099487304686 114.97323741834445 144.61349487304688 Q 115.12018801802459 144.7259948730469 115.03292321702948 145.07599487304688 Q 114.92695881582112 145.50099487304686 114.61479481439954 146.00099487304686 Q 114.30263081297795 146.50099487304686 113.89036601198283 146.8509948730469 Q 113.47810121098772 147.20099487304688 113.05310121098772 147.20099487304688 L 112.65310121098773 147.20099487304688 Q 112.66576921027692 147.45099487304688 112.65035420938844 147.76349487304688 Q 112.63493920849994 148.07599487304688 112.53520800736267 148.4759948730469 Q 112.26094720423517 149.57599487304688 111.48973580142753 150.56349487304686 Q 110.71852439861988 151.55099487304688 109.60029519641643 152.32599487304688 Q 108.48206599421296 153.1009948730469 107.16986839293352 153.55099487304688 Q 105.85767079165409 154.00099487304686 104.50767079165409 154.00099487304686 Z M 116.14593978883998 153.92599487304688 Q 115.84593978883998 153.92599487304688 115.5583725891243 153.82599487304688 Q 115.27080538940862 153.7259948730469 115.16430339047481 153.3509948730469 Q 115.057801391541 152.9759948730469 115.25103059374447 152.20099487304688 Q 115.37569459516607 151.70099487304688 115.65954039740507 150.9134948730469 Q 115.94338619964407 150.12599487304686 116.23038220177646 149.37599487304686 Q 116.74204220533043 148.12599487304686 117.27853420959521 146.62599487304686 Q 117.81502621385998 145.12599487304686 118.18278501805366 143.65099487304687 Q 118.31368221954634 143.12599487304686 118.43204582118116 142.55099487304688 Q 118.55040942281599 141.9759948730469 118.60630662430867 141.45099487304688 Q 118.43760702409543 141.52599487304687 118.23452402391773 141.58849487304687 Q 118.03144102374003 141.65099487304687 117.90644102374003 141.65099487304687 Q 117.65644102374003 141.65099487304687 117.63438962448636 141.38849487304688 Q 117.6123382252327 141.12599487304686 117.6996030262278 140.77599487304687 Q 117.89906542850235 139.9759948730469 118.40811282988841 139.48849487304688 Q 118.91716023127447 139.00099487304686 119.79189143241173 138.6009948730469 Q 120.96025503404655 138.02599487304687 122.1882036347929 137.76349487304688 Q 123.41615223553923 137.50099487304686 124.46615223553923 137.50099487304686 Q 126.01615223553924 137.50099487304686 127.07902183397547 138.05099487304688 Q 128.14189143241174 138.6009948730469 128.56756342956854 139.6009948730469 Q 128.99323542672536 140.6009948730469 128.64417622274493 142.00099487304686 Q 128.2826506186223 143.45099487304688 127.31465661542373 144.57599487304688 Q 126.34666261222515 145.70099487304688 125.10651641019939 146.4134948730469 Q 123.86637020817362 147.12599487304686 122.7102714075339 147.3509948730469 Q 122.95444140575691 147.9759948730469 123.26111140397992 148.6009948730469 Q 123.56778140220294 149.2259948730469 123.91811740078134 149.7259948730469 Q 124.97535859658765 151.20099487304688 126.45035859658765 151.20099487304688 Q 126.85035859658765 151.20099487304688 127.16282499672981 151.15099487304687 Q 127.3190581968009 151.12599487304686 127.39727559640995 151.26349487304688 Q 127.47549299601901 151.40099487304687 127.37576179488174 151.80099487304688 Q 127.25733099353124 152.27599487304687 126.93578359214519 152.76349487304688 Q 126.61423619075913 153.25099487304686 126.0582045898351 153.57599487304688 Q 125.50217298891107 153.90099487304687 124.67717298891107 153.90099487304687 Q 123.70217298891107 153.90099487304687 122.97673619075914 153.25099487304686 Q 122.2512993926072 152.6009948730469 121.75374399548592 151.58849487304687 Q 121.25618859836464 150.57599487304688 120.94918260156322 149.45099487304688 Q 120.6421766047618 148.32599487304688 120.47903820746282 147.37599487304686 Q 120.44760340824469 147.1009948730469 120.43805200899104 146.83849487304687 Q 120.42850060973737 146.57599487304688 120.49083261044817 146.32599487304688 Q 120.5967970116565 145.90099487304687 120.94036221243839 145.62599487304686 Q 121.19022781300703 145.42599487304688 121.57142741322026 145.3509948730469 Q 121.9526270134335 145.27599487304687 122.6526270134335 145.27599487304687 Q 123.9776270134335 145.27599487304687 124.9833898154948 144.55099487304688 Q 125.98915261755612 143.82599487304688 126.27587982082576 142.67599487304688 Q 126.58753982437975 141.42599487304688 125.79340342601458 140.8509948730469 Q 124.99926702764941 140.27599487304687 123.6492670276494 140.27599487304687 Q 122.5492670276494 140.27599487304687 121.26200222665429 140.62599487304686 Q 120.78184422203412 142.25099487304686 119.98325541606344 144.3509948730469 Q 119.52159541250947 145.6009948730469 119.10366860902657 146.82599487304688 Q 118.68574180554367 148.05099487304688 118.43641380270049 149.05099487304688 Q 118.21825180021271 149.92599487304688 118.2155719983291 150.58849487304687 Q 118.2128921964455 151.25099487304686 118.59446139509498 151.7259948730469 Q 118.85719659409988 152.07599487304688 118.7574653929626 152.4759948730469 Q 118.62033499139885 153.02599487304687 117.88313739011942 153.4759948730469 Q 117.14593978883998 153.92599487304688 116.14593978883998 153.92599487304688 Z M 140.13997056581968 153.95099487304688 Q 139.3649705658197 153.95099487304688 138.9926503677033 153.2884948730469 Q 138.6203301695869 152.62599487304686 138.50055537392277 151.1009948730469 Q 138.43755137605513 150.3509948730469 138.45269757808092 149.63849487304688 Q 138.46784378010668 148.92599487304688 138.5611401820258 148.25099487304686 Q 138.11147618060423 148.75099487304686 137.8084603801422 148.9134948730469 Q 137.5054445796802 149.07599487304688 137.0054445796802 149.07599487304688 Q 135.7804445796802 149.07599487304688 134.41479437978683 149.0384948730469 Q 133.04914417989343 149.00099487304686 131.98037737996452 148.9759948730469 Q 131.81817977868508 149.42599487304688 131.6653655773701 149.88849487304688 Q 131.51255137605514 150.3509948730469 131.4003537747757 150.80099487304688 Q 131.30062257363844 151.20099487304688 131.23839137250116 151.6009948730469 Q 131.1761601713639 152.00099487304686 131.1076621702977 152.37599487304686 Q 131.00813256830747 153.07599487304688 130.27716816709912 153.50099487304686 Q 129.54620376589077 153.92599487304688 128.62120376589075 153.92599487304688 Q 127.82120376589077 153.92599487304688 127.99573336788099 153.2259948730469 Q 128.10169776908936 152.80099487304688 128.53862657150606 151.95099487304688 Q 128.8069901731409 151.37599487304686 128.98483797431368 150.96349487304687 Q 129.1626857754865 150.55099487304688 129.2250177761973 150.30099487304688 Q 129.39954737818752 149.6009948730469 129.0368793788983 149.3509948730469 Q 128.73674497946695 149.15099487304687 128.81777658039098 148.82599487304688 Q 128.89257498124394 148.52599487304687 129.13603938245228 148.1009948730469 Q 129.37950378366065 147.67599487304688 129.6948851846913 147.31349487304686 Q 130.01026658572195 146.95099487304688 130.24766578614842 146.80099487304688 Q 130.44759858643275 146.70099487304688 130.716298186646 146.62599487304686 Q 130.98499778685922 146.55099487304688 131.3662309869303 146.52599487304687 Q 133.03934939489122 143.7259948730469 134.7598552006842 141.68849487304686 Q 136.48036100647718 139.65099487304687 138.1327384096402 138.5384948730469 Q 139.78511581280324 137.42599487304688 141.21011581280325 137.42599487304688 Q 142.08511581280325 137.42599487304688 142.33863561113287 138.01349487304688 Q 142.59215540946252 138.6009948730469 142.24932940555314 139.9759948730469 L 141.96883540235456 141.1009948730469 Q 141.33928219517554 143.62599487304686 141.18446018913377 145.75099487304686 Q 141.029638183092 147.87599487304686 141.2492785793248 149.20099487304688 Q 141.45021937534435 150.6009948730469 142.20082417278547 151.50099487304686 Q 142.4384921720747 151.75099487304686 142.4917431715416 151.93849487304686 Q 142.54499417100848 152.12599487304686 142.49512857043985 152.32599487304688 Q 142.40163056937365 152.70099487304688 142.02063256830746 153.07599487304688 Q 141.63963456724127 153.45099487304688 141.1273025665305 153.70099487304688 Q 140.6149705658197 153.95099487304688 140.13997056581968 153.95099487304688 Z M 133.37863018735678 146.37599487304686 Q 134.61609658749893 146.32599487304688 135.55044638760558 146.2884948730469 Q 136.4847961877122 146.25099487304686 137.1097961877122 146.25099487304686 L 138.8597961877122 146.25099487304686 Q 138.9843257897024 145.55099487304688 139.14005499190586 144.77599487304687 Q 139.29578419410933 144.00099487304686 139.50771299652604 143.15099487304687 L 139.86923860064866 141.70099487304688 Q 140.05000140270997 140.9759948730469 139.94671680338521 140.73849487304688 Q 139.84343220406046 140.50099487304686 139.39343220406047 140.50099487304686 Q 138.16843220406048 140.50099487304686 136.5445073995114 142.1009948730469 Q 134.9205825949623 143.70099487304688 133.37863018735678 146.37599487304686 Z M 147.63488787844392 153.9759948730469 Q 145.55988787844393 153.9759948730469 144.90609928125156 152.98849487304688 Q 144.2523106840592 152.00099487304686 144.65746868867936 150.37599487304686 Q 144.7634330898877 149.95099487304688 144.98802989159364 149.3509948730469 Q 145.21262669329954 148.75099487304686 145.54955549571625 147.90099487304687 Q 146.05498229919914 146.67599487304688 146.3949605019357 145.71349487304687 Q 146.73493870467226 144.75099487304686 147.02166590794192 143.6009948730469 Q 147.35202551170914 142.27599487304687 147.48272111405475 141.45099487304688 Q 146.99538911334398 141.70099487304688 146.79538911334396 141.70099487304688 Q 146.39538911334395 141.70099487304688 146.61978431590282 140.80099487304688 Q 146.79431391789305 140.1009948730469 147.22836131927912 139.61349487304688 Q 147.66240872066516 139.12599487304686 148.4933731218735 138.70099487304688 Q 149.33057072315293 138.25099487304686 150.52410232407698 137.92599487304688 Q 151.717633925001 137.6009948730469 152.992633925001 137.6009948730469 Q 155.06763392500102 137.6009948730469 155.90577232229998 138.55099487304688 Q 156.74391071959897 139.50099487304686 156.35745231519203 141.05099487304688 Q 156.10812431234885 142.05099487304688 155.47119550993216 142.90099487304687 Q 154.83426670751544 143.75099487304686 153.89720350566736 144.40099487304687 Q 156.8975395042458 144.90099487304687 156.12462269543192 148.00099487304686 Q 155.7069982906696 149.67599487304688 154.41417228676022 151.05099487304688 Q 153.12134628285085 152.42599487304688 151.30311708064738 153.20099487304688 Q 149.53488787844393 153.9759948730469 147.63488787844392 153.9759948730469 Z M 149.32677308633376 151.20099487304688 Q 150.45177308633376 151.20099487304688 151.44218808722223 150.88849487304688 Q 152.43260308811074 150.57599487304688 153.13219988981663 149.9759948730469 Q 153.83179669152256 149.37599487304686 154.0312590937971 148.57599487304688 Q 154.28682029671137 147.55099487304688 153.6677846979197 147.12599487304686 Q 153.04874909912806 146.70099487304688 152.09874909912807 146.70099487304688 Q 151.69874909912807 146.70099487304688 151.08004949891483 146.77599487304687 Q 150.81758309877267 146.82599487304688 150.49258309877266 146.82599487304688 Q 149.94258309877267 146.82599487304688 149.6922807000521 146.37599487304686 Q 149.44197830133152 145.92599487304688 149.61027470325067 145.25099487304686 Q 149.72870550460118 144.77599487304687 150.1848715049566 144.65099487304687 Q 153.43433390723112 143.8509948730469 153.9267567128464 141.87599487304686 Q 154.31944831732443 140.30099487304688 152.14444831732442 140.30099487304688 Q 151.3444483173244 140.30099487304688 150.10088311654255 140.57599487304688 Q 149.79545631305965 141.80099487304688 149.3369801092569 143.13849487304688 Q 148.87850390545412 144.4759948730469 148.26697830133153 145.92599487304688 Q 147.86765029848834 146.92599487304688 147.60873729653366 147.61349487304688 Q 147.34982429457898 148.30099487304688 147.24385989337063 148.7259948730469 Q 146.90726708953233 150.07599487304688 147.44202008793303 150.63849487304688 Q 147.97677308633374 151.20099487304688 149.32677308633376 151.20099487304688 Z M 158.67283950807825 153.92599487304688 Q 158.07283950807826 153.92599487304688 157.7788711090023 153.6009948730469 Q 157.48490270992633 153.27599487304687 157.73423071276952 152.27599487304687 Q 157.8588947141911 151.77599487304687 158.15835711646565 150.9759948730469 Q 158.4578195187402 150.17599487304688 158.75728192101474 149.37599487304686 Q 159.4748391260614 147.6009948730469 159.9239655297575 146.30099487304688 Q 160.37309193345365 145.00099487304686 160.70968473729195 143.65099487304687 Q 161.02134474084593 142.40099487304687 161.15187234390234 141.32599487304688 Q 161.28239994695878 140.25099487304686 160.92562914916223 139.4759948730469 Q 160.80666075008625 139.15099487304687 160.8502931505838 138.9759948730469 Q 160.92509155143676 138.67599487304688 161.34673975239636 138.33849487304687 Q 161.76838795335593 138.00099487304686 162.31198675399563 137.77599487304687 Q 162.85558555463535 137.55099487304688 163.28058555463537 137.55099487304688 Q 164.05558555463534 137.55099487304688 164.14667255268066 138.23849487304688 Q 164.23775955072597 138.92599487304688 163.98219834781173 139.95099487304688 Q 163.82636834603474 140.57599487304688 163.52073994340478 141.50099487304686 Q 163.21511154077484 142.42599487304688 162.9125661383226 143.2884948730469 Q 162.61002073587036 144.15099487304687 162.41658993451983 144.62599487304686 Q 161.91123033075263 145.95099487304688 161.52450312748297 147.1009948730469 Q 161.13777592421332 148.25099487304686 160.93831352193877 149.05099487304688 Q 160.70145191923774 150.00099487304686 160.72688871738967 150.65099487304687 Q 160.75232551554163 151.30099487304688 161.12136111433327 151.7259948730469 Q 161.3715627134803 152.02599487304687 161.2780647124141 152.40099487304687 Q 161.1284679107082 153.00099487304686 160.40065370939323 153.46349487304687 Q 159.67283950807825 153.92599487304688 158.67283950807825 153.92599487304688 Z M 164.94994827272672 153.92599487304688 Q 164.6499482727267 153.92599487304688 164.36238107301102 153.82599487304688 Q 164.07481387329534 153.7259948730469 163.96831187436155 153.3509948730469 Q 163.86180987542772 152.9759948730469 164.0550390776312 152.20099487304688 Q 164.17970307905279 151.70099487304688 164.46354888129179 150.9134948730469 Q 164.74739468353079 150.12599487304686 165.03439068566317 149.37599487304686 Q 165.54605068921714 148.12599487304686 166.0825426934819 146.62599487304686 Q 166.61903469774668 145.12599487304686 166.98679350194038 143.65099487304687 Q 167.11769070343306 143.12599487304686 167.23605430506788 142.55099487304688 Q 167.3544179067027 141.9759948730469 167.4103151081954 141.45099487304688 Q 167.24161550798215 141.52599487304687 167.03853250780446 141.58849487304687 Q 166.83544950762675 141.65099487304687 166.71044950762675 141.65099487304687 Q 166.46044950762675 141.65099487304687 166.4383981083731 141.38849487304688 Q 166.4163467091194 141.12599487304686 166.50361151011452 140.77599487304687 Q 166.70307391238907 139.9759948730469 167.21212131377513 139.48849487304688 Q 167.72116871516118 139.00099487304686 168.59589991629844 138.6009948730469 Q 169.76426351793327 138.02599487304687 170.99221211867962 137.76349487304688 Q 172.22016071942596 137.50099487304686 173.27016071942595 137.50099487304686 Q 174.82016071942596 137.50099487304686 175.8830303178622 138.05099487304688 Q 176.94589991629846 138.6009948730469 177.37157191345526 139.6009948730469 Q 177.79724391061208 140.6009948730469 177.44818470663165 142.00099487304686 Q 177.08665910250903 143.45099487304688 176.11866509931045 144.57599487304688 Q 175.15067109611186 145.70099487304688 173.9105248940861 146.4134948730469 Q 172.67037869206032 147.12599487304686 171.5142798914206 147.3509948730469 Q 171.75844988964363 147.9759948730469 172.06511988786664 148.6009948730469 Q 172.37178988608966 149.2259948730469 172.72212588466806 149.7259948730469 Q 173.77936708047437 151.20099487304688 175.25436708047437 151.20099487304688 Q 175.65436708047437 151.20099487304688 175.96683348061654 151.15099487304687 Q 176.1230666806876 151.12599487304686 176.2012840802967 151.26349487304688 Q 176.27950147990575 151.40099487304687 176.17977027876847 151.80099487304688 Q 176.06133947741796 152.27599487304687 175.7397920760319 152.76349487304688 Q 175.41824467464585 153.25099487304686 174.86221307372182 153.57599487304688 Q 174.3061814727978 153.90099487304687 173.4811814727978 153.90099487304687 Q 172.50618147279778 153.90099487304687 171.78074467464586 153.25099487304686 Q 171.0553078764939 152.6009948730469 170.55775247937265 151.58849487304687 Q 170.06019708225136 150.57599487304688 169.75319108544994 149.45099487304688 Q 169.44618508864852 148.32599487304688 169.28304669134954 147.37599487304686 Q 169.25161189213142 147.1009948730469 169.24206049287775 146.83849487304687 Q 169.2325090936241 146.57599487304688 169.29484109433488 146.32599487304688 Q 169.40080549554324 145.90099487304687 169.7443706963251 145.62599487304686 Q 169.99423629689375 145.42599487304688 170.37543589710697 145.3509948730469 Q 170.75663549732022 145.27599487304687 171.4566354973202 145.27599487304687 Q 172.78163549732022 145.27599487304687 173.78739829938152 144.55099487304688 Q 174.79316110144282 143.82599487304688 175.07988830471248 142.67599487304688 Q 175.39154830826647 141.42599487304688 174.5974119099013 140.8509948730469 Q 173.80327551153613 140.27599487304687 172.45327551153613 140.27599487304687 Q 171.3532755115361 140.27599487304687 170.066010710541 140.62599487304686 Q 169.58585270592084 142.25099487304686 168.78726389995015 144.3509948730469 Q 168.3256038963962 145.6009948730469 167.90767709291327 146.82599487304688 Q 167.4897502894304 148.05099487304688 167.2404222865872 149.05099487304688 Q 167.02226028409942 149.92599487304688 167.01958048221582 150.58849487304687 Q 167.0169006803322 151.25099487304686 167.3984698789817 151.7259948730469 Q 167.66120507798658 152.07599487304688 167.5614738768493 152.4759948730469 Q 167.42434347528558 153.02599487304687 166.68714587400615 153.4759948730469 Q 165.94994827272672 153.92599487304688 164.94994827272672 153.92599487304688 Z" style="fill: rgb(254, 209, 54); text-transform: capitalize; white-space: pre;"/>
  <path d="M 104.508 154.501 C 103.293 154.501 102.18 154.204 101.327 153.644 C 100.464 153.078 99.818 152.179 99.507 151.117 C 99.197 150.06 99.231 148.733 99.593 147.28 C 99.918 145.976 100.465 144.684 101.202 143.478 C 101.938 142.273 102.85 141.161 103.894 140.196 C 104.942 139.227 106.148 138.435 107.44 137.868 C 108.741 137.298 110.154 137.001 111.572 137.001 C 112.62 137.001 113.538 137.184 114.19 137.536 C 114.545 137.727 114.864 138.039 115.01 138.353 C 115.157 138.669 115.184 139.116 115.089 139.497 C 115 139.853 114.798 140.245 114.537 140.574 C 114.282 140.896 113.959 141.195 113.626 141.417 C 113.275 141.651 112.849 141.801 112.499 141.801 C 112.252 141.801 111.948 141.668 111.768 141.52 L 111.594 141.378 L 111.816 141.565 C 111.176 141.025 110.422 140.801 109.398 140.801 C 108.294 140.801 107.373 141.038 106.497 141.546 C 105.607 142.061 104.906 142.701 104.308 143.541 C 103.706 144.387 103.303 145.259 103.056 146.247 C 102.691 147.714 102.794 148.721 103.37 149.538 C 103.941 150.348 104.764 150.701 106.131 150.701 C 106.727 150.701 107.267 150.62 107.827 150.448 C 108.381 150.278 108.813 150.055 109.211 149.736 C 109.589 149.434 109.777 149.149 109.882 148.73 C 109.983 148.321 109.971 148.194 109.827 148.03 C 109.648 147.825 109.434 147.704 109.042 147.595 C 108.617 147.478 108.151 147.405 107.617 147.374 C 107.203 147.338 106.85 147.277 106.631 147.193 C 106.429 147.116 106.204 146.848 106.156 146.638 C 106.117 146.467 106.134 146.214 106.186 146.005 C 106.304 145.53 106.598 145.06 106.973 144.744 C 107.345 144.431 107.832 144.231 108.284 144.178 C 108.805 144.128 109.43 144.089 110.143 144.064 C 110.852 144.039 111.592 144.022 112.355 144.014 C 113.117 144.005 113.833 144.001 114.501 144.001 C 114.776 144.001 115.098 144.08 115.277 144.216 C 115.411 144.319 115.537 144.56 115.558 144.721 C 115.575 144.854 115.556 145.045 115.518 145.197 C 115.437 145.524 115.265 145.904 115.039 146.266 C 114.811 146.63 114.519 146.973 114.214 147.232 C 113.917 147.484 113.528 147.645 113.177 147.69 L 113.152 147.176 C 113.16 147.33 113.161 147.507 113.154 147.693 C 113.12 147.697 113.086 147.699 113.053 147.701 L 113.154 147.701 C 113.152 147.73 113.151 147.759 113.15 147.788 C 113.138 148.024 113.092 148.31 113.02 148.597 C 112.824 149.383 112.428 150.174 111.884 150.871 C 111.346 151.56 110.66 152.2 109.885 152.737 C 109.111 153.273 108.239 153.713 107.332 154.024 C 106.419 154.337 105.449 154.501 104.508 154.501 Z M 107.008 153.078 C 107.85 152.789 108.599 152.412 109.315 151.915 C 110.031 151.419 110.606 150.883 111.096 150.256 C 111.579 149.636 111.88 149.035 112.05 148.355 C 112.111 148.109 112.142 147.92 112.151 147.739 C 112.161 147.542 112.162 147.379 112.154 147.226 L 112.126 146.701 L 113.053 146.701 C 113.24 146.72 113.35 146.654 113.567 146.47 C 113.811 146.262 114.002 146.038 114.191 145.736 C 114.369 145.451 114.474 145.225 114.536 145.001 C 114.525 145.001 114.514 145.001 114.501 145.001 C 113.836 145.001 113.125 145.005 112.366 145.013 C 111.609 145.022 110.881 145.038 110.178 145.063 C 109.479 145.088 108.885 145.124 108.381 145.174 C 108.084 145.187 107.879 145.288 107.618 145.508 C 107.36 145.726 107.237 145.922 107.156 146.247 C 107.151 146.269 107.146 146.288 107.142 146.304 C 107.271 146.333 107.448 146.357 107.695 146.377 C 108.275 146.413 108.829 146.499 109.308 146.632 C 109.82 146.773 110.292 147.044 110.58 147.372 C 110.903 147.741 110.999 148.381 110.852 148.972 C 110.707 149.553 110.333 150.118 109.836 150.516 C 109.361 150.897 108.759 151.208 108.121 151.404 C 107.49 151.598 106.801 151.701 106.131 151.701 C 104.565 151.701 103.274 151.137 102.553 150.114 C 101.836 149.098 101.679 147.638 102.086 146.005 C 102.355 144.926 102.838 143.882 103.493 142.961 C 104.152 142.035 105.014 141.249 105.995 140.681 C 106.989 140.105 108.169 139.801 109.398 139.801 C 110.575 139.801 111.643 140.16 112.445 140.787 L 112.467 140.805 C 112.474 140.802 112.485 140.801 112.499 140.801 C 112.683 140.801 112.823 140.751 113.072 140.585 C 113.338 140.407 113.546 140.215 113.753 139.953 C 113.955 139.699 114.058 139.499 114.119 139.255 C 114.178 139.019 114.173 138.924 114.103 138.774 C 114.032 138.622 113.949 138.542 113.716 138.416 C 113.193 138.134 112.523 138.001 111.572 138.001 C 110.256 138.001 109.049 138.255 107.842 138.784 C 106.626 139.317 105.56 140.017 104.573 140.931 C 103.58 141.849 102.756 142.854 102.056 143.999 C 101.357 145.143 100.87 146.293 100.563 147.522 C 100.227 148.869 100.2 149.925 100.467 150.835 C 100.732 151.739 101.162 152.341 101.875 152.808 C 102.597 153.281 103.422 153.501 104.508 153.501 C 105.366 153.501 106.171 153.365 107.008 153.078 Z M 116.146 154.426 C 115.904 154.426 115.625 154.378 115.394 154.298 C 115.08 154.189 114.782 153.835 114.683 153.488 C 114.589 153.155 114.627 152.638 114.766 152.08 C 114.853 151.731 114.997 151.278 115.189 150.744 C 115.379 150.217 115.575 149.689 115.768 149.187 C 116.107 148.359 116.452 147.453 116.808 146.458 C 117.161 145.469 117.456 144.501 117.698 143.53 C 117.784 143.185 117.864 142.829 117.942 142.45 C 117.964 142.347 117.983 142.245 118.001 142.146 C 117.968 142.149 117.936 142.151 117.906 142.151 C 117.743 142.151 117.488 142.063 117.366 141.945 C 117.247 141.83 117.15 141.591 117.136 141.43 C 117.118 141.208 117.148 140.922 117.214 140.655 C 117.363 140.06 117.669 139.504 118.062 139.127 C 118.436 138.769 118.966 138.432 119.577 138.15 C 120.384 137.754 121.234 137.456 122.084 137.275 C 122.926 137.095 123.738 137.001 124.466 137.001 C 125.551 137.001 126.541 137.21 127.309 137.607 C 128.089 138.011 128.709 138.657 129.028 139.405 C 129.347 140.155 129.379 141.122 129.129 142.122 C 128.874 143.144 128.377 144.108 127.694 144.902 C 127.021 145.683 126.22 146.351 125.356 146.847 C 124.497 147.34 124.034 147.51 123.393 147.697 C 123.492 147.924 123.51 147.973 123.71 148.381 C 123.906 148.781 124.102 149.119 124.325 149.435 C 124.952 150.348 125.593 150.701 126.45 150.701 C 126.7 150.701 126.897 150.687 127.084 150.657 C 127.202 150.638 127.403 150.662 127.516 150.716 C 127.629 150.77 127.773 150.912 127.832 151.016 C 127.949 151.223 127.94 151.606 127.861 151.922 C 127.771 152.283 127.589 152.682 127.353 153.039 C 127.106 153.414 126.728 153.764 126.311 154.008 C 125.877 154.261 125.284 154.401 124.677 154.401 C 123.938 154.401 123.193 154.116 122.643 153.623 C 122.121 153.156 121.656 152.524 121.305 151.809 C 120.963 151.112 120.678 150.355 120.467 149.583 C 120.259 148.822 120.094 148.079 119.982 147.433 C 119.96 147.24 119.945 147.042 119.938 146.857 C 119.931 146.647 119.956 146.406 120.006 146.205 C 120.096 145.844 120.337 145.469 120.628 145.236 C 120.845 145.062 121.168 144.921 121.475 144.86 C 121.76 144.804 122.169 144.776 122.653 144.776 C 123.462 144.776 124.085 144.582 124.691 144.145 C 125.293 143.711 125.621 143.236 125.791 142.555 C 125.882 142.189 125.89 141.957 125.828 141.723 C 125.769 141.501 125.698 141.399 125.5 141.256 C 125.043 140.925 124.485 140.776 123.649 140.776 C 122.952 140.776 122.38 140.86 121.66 141.039 C 121.337 142.132 120.986 143.12 120.451 144.526 C 120.145 145.356 119.854 146.174 119.577 146.987 C 119.301 147.795 119.085 148.517 118.922 149.172 C 118.782 149.731 118.717 150.183 118.716 150.591 C 118.714 150.952 118.782 151.187 118.994 151.426 C 119.214 151.756 119.336 152.223 119.243 152.597 C 119.124 153.074 118.699 153.564 118.144 153.903 C 117.59 154.241 116.875 154.426 116.146 154.426 Z M 117.623 153.049 C 118.05 152.788 118.209 152.611 118.272 152.355 C 118.312 152.196 118.327 152.164 118.196 152.028 C 117.904 151.635 117.713 151.108 117.716 150.586 C 117.718 150.11 117.8 149.538 117.951 148.93 C 118.12 148.252 118.349 147.49 118.63 146.665 C 118.91 145.845 119.205 145.014 119.514 144.178 C 120.044 142.785 120.466 141.557 120.782 140.484 L 120.862 140.216 L 121.131 140.144 C 122.018 139.904 122.88 139.776 123.649 139.776 C 124.614 139.776 125.485 140.01 126.087 140.446 C 126.418 140.686 126.692 141.08 126.794 141.467 C 126.893 141.84 126.878 142.329 126.761 142.797 C 126.549 143.649 126.014 144.424 125.276 144.957 C 124.541 145.486 123.61 145.776 122.653 145.776 C 122.203 145.776 121.891 145.798 121.668 145.842 C 121.467 145.881 121.368 145.924 121.253 146.016 C 121.086 146.15 121.027 146.241 120.976 146.447 C 120.943 146.579 120.933 146.68 120.938 146.82 C 120.944 146.985 120.955 147.137 120.974 147.305 C 121.08 147.922 121.23 148.58 121.432 149.319 C 121.63 150.047 121.881 150.715 122.202 151.368 C 122.515 152.003 122.865 152.479 123.31 152.879 C 123.727 153.252 124.116 153.401 124.677 153.401 C 125.17 153.401 125.499 153.324 125.806 153.144 C 126.13 152.955 126.337 152.763 126.518 152.488 C 126.71 152.197 126.821 151.955 126.889 151.685 C 126.749 151.696 126.601 151.701 126.45 151.701 C 125.341 151.701 124.294 151.071 123.512 150.017 C 123.267 149.667 123.025 149.254 122.812 148.821 C 122.603 148.395 122.411 147.959 122.245 147.533 L 122.025 146.972 L 122.615 146.86 C 123.342 146.723 124.063 146.436 124.857 145.98 C 125.647 145.526 126.317 144.968 126.936 144.25 C 127.543 143.544 127.932 142.791 128.159 141.88 C 128.375 141.013 128.356 140.38 128.107 139.797 C 127.858 139.212 127.486 138.825 126.849 138.495 C 126.2 138.159 125.448 138.001 124.466 138.001 C 123.795 138.001 123.088 138.082 122.293 138.252 C 121.505 138.421 120.764 138.678 120.013 139.05 C 119.461 139.299 119.059 139.558 118.754 139.85 C 118.469 140.123 118.302 140.426 118.185 140.897 C 118.166 140.972 118.153 141.036 118.144 141.093 C 118.24 141.062 118.321 141.031 118.403 140.994 L 119.197 140.637 L 119.103 141.504 C 119.065 141.867 119.003 142.257 118.922 142.652 C 118.842 143.04 118.756 143.417 118.668 143.772 C 118.42 144.768 118.111 145.783 117.749 146.794 C 117.39 147.799 117.038 148.722 116.695 149.56 C 116.506 150.056 116.318 150.56 116.13 151.083 C 115.944 151.599 115.815 152.004 115.736 152.322 C 115.618 152.798 115.598 153.047 115.645 153.214 C 115.689 153.367 115.653 153.329 115.723 153.354 C 115.875 153.407 115.988 153.426 116.146 153.426 C 116.75 153.426 117.193 153.311 117.623 153.049 Z M 140.14 154.451 C 139.498 154.451 138.867 154.086 138.557 153.533 C 138.273 153.029 138.088 152.193 138.002 151.143 C 137.961 150.644 137.943 150.145 137.952 149.668 L 138.933 148.585 C 138.612 148.939 138.297 149.219 138.045 149.354 C 138.018 149.369 137.989 149.382 137.96 149.396 C 137.976 148.984 138.012 148.574 138.066 148.183 L 137.896 149.423 C 137.644 149.522 137.322 149.576 137.005 149.576 C 136.185 149.576 135.315 149.563 134.401 149.538 C 133.491 149.513 132.952 149.5 132.331 149.484 C 132.266 149.67 132.241 149.74 132.14 150.045 C 132.041 150.345 131.958 150.631 131.886 150.922 C 131.822 151.178 131.772 151.422 131.732 151.678 C 131.69 151.948 131.649 152.193 131.603 152.446 C 131.49 153.026 131.102 153.6 130.529 153.933 C 129.982 154.251 129.3 154.426 128.621 154.426 C 128.28 154.426 127.881 154.296 127.692 154.084 C 127.494 153.862 127.43 153.427 127.511 153.105 C 127.591 152.783 127.793 152.31 128.089 151.731 C 128.265 151.354 128.409 151.037 128.526 150.766 C 128.638 150.504 128.705 150.322 128.74 150.18 C 128.787 149.989 128.793 149.905 128.775 149.811 C 128.768 149.777 128.774 149.767 128.777 149.764 C 128.775 149.765 128.768 149.766 128.754 149.763 C 128.605 149.654 128.438 149.474 128.371 149.312 C 128.301 149.146 128.288 148.883 128.333 148.705 C 128.393 148.464 128.527 148.159 128.702 147.852 C 128.877 147.548 129.091 147.246 129.318 146.985 C 129.545 146.723 129.829 146.482 130.024 146.354 C 130.182 146.277 130.382 146.2 130.582 146.144 C 130.79 146.086 130.889 146.074 131.068 146.052 C 132.193 144.17 133.216 142.741 134.378 141.366 C 135.544 139.985 136.719 138.887 137.854 138.124 C 139.006 137.348 140.175 136.926 141.21 136.926 C 141.552 136.926 141.912 137 142.161 137.129 C 142.423 137.266 142.68 137.543 142.798 137.815 C 143.01 138.307 142.97 139.131 142.734 140.097 L 142.454 141.222 C 142.038 142.886 141.785 144.394 141.683 145.787 C 141.582 147.181 141.601 148.283 141.744 149.13 C 141.862 150.003 142.12 150.637 142.576 151.17 C 142.756 151.368 142.916 151.603 142.973 151.802 C 143.026 151.991 143.029 152.253 142.98 152.447 C 142.899 152.773 142.666 153.142 142.371 153.432 C 142.088 153.711 141.723 153.967 141.347 154.15 C 140.959 154.339 140.518 154.451 140.14 154.451 Z M 140.908 153.252 C 141.215 153.102 141.446 152.941 141.67 152.72 C 141.883 152.51 141.967 152.379 142.01 152.205 C 142.028 152.132 142.028 152.136 142.011 152.075 C 141.996 152.023 141.97 151.978 141.838 151.846 C 141.299 151.181 140.907 150.27 140.756 149.28 C 140.606 148.361 140.581 147.154 140.686 145.715 C 140.791 144.275 141.06 142.682 141.484 140.98 L 141.764 139.855 C 141.986 138.987 142.005 138.503 141.88 138.212 C 141.828 138.092 141.812 138.075 141.699 138.016 C 141.572 137.95 141.452 137.926 141.21 137.926 C 140.345 137.926 139.463 138.246 138.412 138.953 C 137.343 139.673 136.27 140.675 135.142 142.011 C 134.009 143.352 132.901 144.931 131.795 146.782 L 131.66 147.009 L 131.399 147.025 C 131.166 147.039 131.001 147.066 130.851 147.108 C 130.692 147.152 130.594 147.187 130.492 147.238 C 130.377 147.312 130.265 147.42 130.072 147.642 C 129.878 147.865 129.72 148.087 129.57 148.35 C 129.426 148.601 129.348 148.776 129.307 148.932 C 129.309 148.933 129.311 148.934 129.314 148.935 C 129.505 149.091 129.707 149.37 129.756 149.616 C 129.8 149.839 129.779 150.146 129.71 150.422 C 129.662 150.614 129.568 150.873 129.444 151.161 C 129.324 151.44 129.172 151.776 128.992 152.162 C 128.708 152.713 128.542 153.102 128.481 153.347 C 128.468 153.399 128.457 153.421 128.449 153.429 C 128.46 153.432 128.487 153.426 128.621 153.426 C 129.176 153.426 129.597 153.318 130.026 153.069 C 130.427 152.835 130.593 152.659 130.613 152.306 C 130.658 152.059 130.703 151.788 130.744 151.524 C 130.788 151.246 130.846 150.958 130.915 150.68 C 130.992 150.371 131.086 150.049 131.191 149.732 C 131.294 149.42 131.401 149.11 131.51 148.806 L 131.632 148.468 L 131.992 148.476 C 132.705 148.493 133.518 148.514 134.429 148.539 C 135.336 148.564 136.192 148.576 137.005 148.576 C 137.289 148.576 137.434 148.547 137.572 148.473 C 137.724 148.391 137.91 148.229 138.189 147.917 L 139.229 146.751 L 137.11 146.751 C 136.699 146.751 136.189 146.763 135.57 146.788 C 134.948 146.813 134.224 146.842 133.399 146.876 L 132.492 146.912 L 132.945 146.126 C 133.989 144.319 135.083 142.839 136.194 141.745 C 137.323 140.632 138.454 140.001 139.393 140.001 C 139.584 140.001 139.806 140.038 139.954 140.101 C 140.124 140.174 140.331 140.369 140.405 140.539 C 140.521 140.805 140.482 141.298 140.354 141.822 L 139.993 143.272 C 139.853 143.833 139.733 144.364 139.63 144.874 C 139.527 145.389 139.435 145.875 139.352 146.339 L 139.279 146.751 L 139.275 146.751 L 139.056 148.319 C 138.996 148.755 138.962 149.188 138.953 149.649 C 138.943 150.111 138.958 150.572 138.999 151.059 C 139.073 152.04 139.215 152.664 139.429 153.044 C 139.614 153.374 139.748 153.451 140.14 153.451 C 140.395 153.451 140.612 153.396 140.908 153.252 Z M 134.28 145.839 C 134.735 145.821 134.907 145.814 135.53 145.789 C 136.157 145.764 136.687 145.751 137.11 145.751 L 138.442 145.751 C 138.506 145.406 138.546 145.197 138.65 144.678 C 138.755 144.155 138.88 143.602 139.023 143.03 L 139.384 141.58 C 139.467 141.256 139.496 141.09 139.497 141.004 C 139.474 141.002 139.443 141.001 139.393 141.001 C 138.699 141.001 137.931 141.437 136.895 142.457 C 135.84 143.497 135.138 144.451 134.28 145.839 Z M 147.635 154.476 C 146.166 154.476 145.007 154.047 144.489 153.265 C 143.988 152.508 143.882 151.419 144.172 150.255 C 144.247 149.955 144.366 149.587 144.52 149.176 C 144.67 148.773 144.862 148.279 145.087 147.71 C 145.422 146.899 145.699 146.182 145.924 145.547 C 146.146 144.917 146.348 144.236 146.537 143.48 C 146.754 142.607 146.755 142.573 146.834 142.201 C 146.823 142.201 146.81 142.201 146.795 142.201 C 146.646 142.201 146.409 142.117 146.295 142.012 C 146.188 141.914 146.088 141.711 146.061 141.572 C 146.018 141.351 146.051 141.015 146.135 140.68 C 146.265 140.158 146.524 139.653 146.855 139.281 C 147.18 138.916 147.67 138.564 148.257 138.261 C 148.844 137.947 149.573 137.667 150.393 137.444 C 151.221 137.218 152.11 137.101 152.993 137.101 C 154.453 137.101 155.638 137.492 156.281 138.22 C 156.925 138.951 157.125 140.039 156.843 141.172 C 156.664 141.887 156.325 142.595 155.871 143.201 C 155.422 143.801 155.302 143.884 154.961 144.192 C 155.578 144.449 155.944 144.585 156.379 145.288 C 156.812 145.987 156.886 147.014 156.61 148.122 C 156.315 149.303 155.682 150.433 154.778 151.394 C 153.881 152.348 152.76 153.118 151.504 153.659 C 150.276 154.191 148.953 154.476 147.635 154.476 Z M 151.102 152.743 C 152.27 152.251 153.224 151.587 154.05 150.708 C 154.87 149.836 155.377 148.933 155.639 147.88 C 155.878 146.922 155.839 146.315 155.529 145.814 C 155.222 145.317 154.734 145.032 153.815 144.894 L 152.57 144.707 L 153.612 143.99 C 154.207 143.581 154.671 143.135 155.071 142.601 C 155.466 142.074 155.718 141.548 155.872 140.93 C 156.105 139.996 156.004 139.418 155.531 138.882 C 155.056 138.344 154.298 138.101 152.993 138.101 C 152.175 138.101 151.419 138.201 150.655 138.408 C 149.884 138.619 149.259 138.855 148.73 139.141 C 148.209 139.405 147.855 139.661 147.602 139.946 C 147.354 140.224 147.208 140.51 147.105 140.922 C 147.088 140.992 147.074 141.051 147.063 141.102 C 147.117 141.077 147.18 141.045 147.255 141.006 L 148.132 140.549 L 147.977 141.529 C 147.887 142.093 147.729 142.831 147.507 143.722 C 147.313 144.499 147.097 145.226 146.866 145.88 C 146.637 146.529 146.352 147.267 146.013 148.088 C 145.79 148.652 145.605 149.129 145.456 149.526 C 145.311 149.915 145.209 150.23 145.143 150.497 C 144.893 151.5 144.952 152.152 145.323 152.712 C 145.677 153.247 146.337 153.476 147.635 153.476 C 148.85 153.476 149.972 153.244 151.102 152.743 Z M 147.08 150.983 C 146.618 150.497 146.514 149.588 146.759 148.605 C 146.834 148.304 146.964 147.906 147.141 147.437 C 147.314 146.976 147.539 146.4 147.806 145.732 C 148.211 144.773 148.561 143.859 148.864 142.976 C 149.166 142.094 149.415 141.261 149.616 140.455 L 149.691 140.154 L 149.993 140.088 C 150.843 139.901 151.578 139.801 152.144 139.801 C 152.932 139.801 153.626 139.982 154.009 140.32 C 154.417 140.681 154.569 141.366 154.412 141.997 C 154.045 143.468 152.572 144.558 150.317 145.133 C 150.127 145.148 150.144 145.176 150.095 145.372 C 150.002 145.746 150.014 145.925 150.129 146.133 C 150.232 146.319 150.248 146.326 150.493 146.326 C 150.688 146.326 150.87 146.309 151.02 146.28 C 151.444 146.229 151.814 146.201 152.099 146.201 C 152.797 146.201 153.47 146.384 153.951 146.714 C 154.23 146.905 154.471 147.252 154.553 147.579 C 154.631 147.89 154.614 148.307 154.516 148.697 C 154.364 149.308 153.979 149.909 153.458 150.356 C 152.951 150.79 152.298 151.143 151.593 151.365 C 150.895 151.586 150.113 151.701 149.327 151.701 C 148.355 151.701 147.522 151.448 147.08 150.983 Z M 149.327 150.701 C 150.04 150.701 150.669 150.608 151.292 150.412 C 151.907 150.217 152.381 149.962 152.807 149.596 C 153.219 149.243 153.433 148.911 153.546 148.455 C 153.619 148.162 153.627 147.995 153.583 147.823 C 153.544 147.667 153.518 147.63 153.385 147.538 C 153.04 147.302 152.667 147.201 152.099 147.201 C 151.85 147.201 151.555 147.222 151.154 147.271 C 150.957 147.305 150.73 147.326 150.493 147.326 C 150.003 147.326 149.486 147.033 149.255 146.619 C 149.044 146.239 148.997 145.69 149.114 145.178 C 148.991 145.487 148.863 145.8 148.73 146.116 C 148.465 146.779 148.248 147.334 148.077 147.79 C 147.908 148.238 147.795 148.581 147.729 148.847 C 147.525 149.664 147.553 150.03 147.804 150.294 C 148.075 150.579 148.498 150.701 149.327 150.701 Z M 149.252 144.825 C 149.43 144.525 149.736 144.283 150.053 144.169 C 152.13 143.677 153.152 142.918 153.442 141.755 C 153.546 141.336 153.532 141.233 153.346 141.069 C 153.135 140.882 152.807 140.801 152.144 140.801 C 151.644 140.801 151.175 140.864 150.508 141 C 150.315 141.737 150.119 142.399 149.81 143.301 C 149.64 143.797 149.454 144.305 149.252 144.825 Z M 158.673 154.426 C 158.187 154.426 157.682 154.24 157.408 153.936 C 157.104 153.6 157.066 152.888 157.249 152.155 C 157.336 151.804 157.487 151.344 157.69 150.801 C 157.89 150.267 158.094 149.722 158.294 149.189 C 158.77 148.01 159.154 146.997 159.451 146.138 C 159.747 145.282 160.003 144.419 160.225 143.53 C 160.429 142.71 160.571 141.966 160.656 141.266 C 160.735 140.609 160.673 140.09 160.456 139.648 C 160.364 139.383 160.313 139.065 160.365 138.855 C 160.44 138.557 160.708 138.209 161.034 137.948 C 161.344 137.7 161.727 137.477 162.121 137.314 C 162.521 137.148 162.941 137.051 163.281 137.051 C 163.607 137.051 163.976 137.157 164.195 137.331 C 164.421 137.511 164.601 137.861 164.642 138.173 C 164.71 138.687 164.647 139.353 164.467 140.072 C 164.361 140.5 164.202 141.034 163.996 141.658 C 163.791 142.277 163.587 142.877 163.384 143.454 C 163.181 144.033 163.013 144.486 162.882 144.809 C 162.547 145.688 162.255 146.499 161.998 147.26 C 161.743 148.019 161.554 148.65 161.423 149.172 C 161.272 149.778 161.211 150.24 161.227 150.631 C 161.24 150.988 161.305 151.2 161.505 151.406 C 161.724 151.709 161.853 152.162 161.763 152.522 C 161.637 153.027 161.219 153.536 160.669 153.885 C 160.12 154.234 159.404 154.426 158.673 154.426 Z M 160.132 153.041 C 160.552 152.775 160.719 152.575 160.793 152.28 C 160.828 152.14 160.853 152.143 160.738 152.047 C 160.449 151.686 160.247 151.181 160.227 150.671 C 160.209 150.195 160.288 149.591 160.453 148.93 C 160.589 148.385 160.79 147.716 161.051 146.942 C 161.31 146.17 161.611 145.335 161.949 144.448 C 162.075 144.139 162.241 143.694 162.441 143.123 C 162.642 142.55 162.843 141.959 163.046 141.344 C 163.247 140.735 163.396 140.236 163.497 139.83 C 163.658 139.183 163.704 138.707 163.651 138.304 C 163.632 138.157 163.637 138.164 163.574 138.114 C 163.505 138.06 163.47 138.051 163.281 138.051 C 163.054 138.051 162.828 138.104 162.503 138.238 C 162.172 138.375 161.912 138.527 161.659 138.729 C 161.423 138.918 161.361 138.995 161.335 139.097 C 161.33 139.121 161.318 139.111 161.385 139.279 C 161.64 139.868 161.742 140.61 161.648 141.386 C 161.559 142.12 161.406 142.925 161.195 143.772 C 160.968 144.683 160.7 145.587 160.397 146.464 C 160.095 147.338 159.702 148.372 159.223 149.557 C 159.024 150.089 158.826 150.618 158.627 151.151 C 158.431 151.675 158.298 152.081 158.219 152.397 C 158.07 152.997 158.062 153.169 158.15 153.266 C 158.267 153.396 158.358 153.426 158.673 153.426 C 159.275 153.426 159.711 153.31 160.132 153.041 Z M 164.95 154.426 C 164.708 154.426 164.429 154.378 164.198 154.298 C 163.884 154.189 163.586 153.835 163.487 153.488 C 163.393 153.155 163.431 152.638 163.57 152.08 C 163.657 151.731 163.801 151.278 163.993 150.744 C 164.183 150.217 164.379 149.689 164.572 149.187 C 164.911 148.359 165.256 147.453 165.612 146.458 C 165.965 145.469 166.26 144.501 166.502 143.53 C 166.588 143.185 166.668 142.829 166.746 142.45 C 166.768 142.347 166.787 142.245 166.805 142.146 C 166.772 142.149 166.74 142.151 166.71 142.151 C 166.547 142.151 166.292 142.063 166.17 141.945 C 166.051 141.83 165.954 141.591 165.94 141.43 C 165.922 141.208 165.952 140.922 166.018 140.655 C 166.167 140.06 166.473 139.504 166.866 139.127 C 167.24 138.769 167.77 138.432 168.381 138.15 C 169.186 137.756 170.038 137.456 170.888 137.275 C 171.73 137.095 172.542 137.001 173.27 137.001 C 174.355 137.001 175.345 137.21 176.113 137.607 C 176.893 138.011 177.513 138.657 177.832 139.405 C 178.151 140.155 178.183 141.122 177.933 142.122 C 177.678 143.144 177.181 144.108 176.498 144.902 C 175.825 145.683 175.024 146.351 174.16 146.847 C 173.301 147.34 172.838 147.51 172.197 147.697 C 172.296 147.924 172.314 147.973 172.514 148.381 C 172.71 148.781 172.906 149.119 173.129 149.435 C 173.756 150.348 174.397 150.701 175.254 150.701 C 175.504 150.701 175.701 150.687 175.888 150.657 C 176.006 150.638 176.207 150.662 176.32 150.716 C 176.433 150.77 176.577 150.912 176.636 151.016 C 176.753 151.223 176.744 151.606 176.665 151.922 C 176.575 152.283 176.393 152.682 176.157 153.039 C 175.91 153.414 175.532 153.764 175.115 154.008 C 174.681 154.261 174.088 154.401 173.481 154.401 C 172.742 154.401 171.997 154.116 171.447 153.623 C 170.925 153.156 170.46 152.524 170.109 151.809 C 169.767 151.112 169.482 150.355 169.271 149.583 C 169.063 148.822 168.898 148.079 168.786 147.433 C 168.764 147.24 168.749 147.042 168.742 146.857 C 168.735 146.647 168.76 146.406 168.81 146.205 C 168.9 145.844 169.141 145.469 169.432 145.236 C 169.649 145.062 169.972 144.921 170.279 144.86 C 170.564 144.804 170.973 144.776 171.457 144.776 C 172.266 144.776 172.889 144.582 173.495 144.145 C 174.097 143.711 174.425 143.236 174.595 142.555 C 174.686 142.189 174.694 141.957 174.632 141.723 C 174.573 141.501 174.502 141.399 174.304 141.256 C 173.847 140.925 173.289 140.776 172.453 140.776 C 171.756 140.776 171.184 140.86 170.464 141.039 C 170.141 142.132 169.79 143.12 169.255 144.526 C 168.949 145.356 168.658 146.174 168.381 146.987 C 168.105 147.795 167.889 148.517 167.726 149.172 C 167.586 149.731 167.521 150.183 167.52 150.591 C 167.518 150.952 167.586 151.187 167.798 151.426 C 168.018 151.756 168.14 152.223 168.047 152.597 C 167.928 153.074 167.503 153.564 166.948 153.903 C 166.394 154.241 165.679 154.426 164.95 154.426 Z M 166.427 153.049 C 166.854 152.788 167.013 152.611 167.076 152.355 C 167.116 152.196 167.131 152.164 167 152.028 C 166.708 151.635 166.517 151.108 166.52 150.586 C 166.522 150.11 166.604 149.538 166.755 148.93 C 166.924 148.252 167.153 147.49 167.434 146.665 C 167.714 145.845 168.009 145.014 168.318 144.178 C 168.848 142.785 169.27 141.557 169.587 140.484 L 169.666 140.216 L 169.935 140.144 C 170.822 139.904 171.684 139.776 172.453 139.776 C 173.418 139.776 174.289 140.01 174.891 140.446 C 175.222 140.686 175.496 141.08 175.598 141.467 C 175.697 141.84 175.682 142.329 175.565 142.797 C 175.353 143.649 174.818 144.424 174.08 144.957 C 173.345 145.486 172.414 145.776 171.457 145.776 C 171.007 145.776 170.695 145.798 170.472 145.842 C 170.271 145.881 170.172 145.924 170.057 146.016 C 169.89 146.15 169.831 146.241 169.78 146.447 C 169.747 146.579 169.737 146.68 169.742 146.82 C 169.748 146.985 169.759 147.137 169.778 147.305 C 169.884 147.922 170.034 148.58 170.236 149.319 C 170.434 150.047 170.685 150.715 171.006 151.368 C 171.319 152.003 171.669 152.479 172.114 152.879 C 172.531 153.252 172.92 153.401 173.481 153.401 C 173.974 153.401 174.303 153.324 174.61 153.144 C 174.934 152.955 175.141 152.763 175.322 152.488 C 175.514 152.197 175.625 151.955 175.693 151.685 C 175.553 151.696 175.405 151.701 175.254 151.701 C 174.145 151.701 173.098 151.071 172.316 150.017 C 172.071 149.667 171.829 149.254 171.616 148.821 C 171.407 148.395 171.215 147.959 171.049 147.533 L 170.829 146.972 L 171.419 146.86 C 172.146 146.723 172.867 146.436 173.661 145.98 C 174.451 145.526 175.121 144.968 175.74 144.25 C 176.347 143.544 176.736 142.791 176.963 141.88 C 177.179 141.013 177.16 140.38 176.912 139.797 C 176.662 139.212 176.29 138.825 175.653 138.495 C 175.004 138.159 174.252 138.001 173.27 138.001 C 172.599 138.001 171.892 138.082 171.097 138.252 C 170.309 138.421 169.568 138.678 168.817 139.05 C 168.265 139.299 167.863 139.558 167.558 139.85 C 167.273 140.123 167.106 140.426 166.989 140.897 C 166.97 140.972 166.957 141.036 166.948 141.093 C 167.044 141.062 167.125 141.031 167.207 140.994 L 168.001 140.637 L 167.908 141.504 C 167.869 141.867 167.807 142.257 167.726 142.652 C 167.646 143.04 167.561 143.417 167.472 143.772 C 167.224 144.768 166.915 145.783 166.553 146.794 C 166.194 147.799 165.842 148.722 165.499 149.56 C 165.31 150.056 165.122 150.56 164.934 151.083 C 164.748 151.599 164.619 152.004 164.54 152.322 C 164.422 152.798 164.402 153.047 164.449 153.214 C 164.493 153.367 164.457 153.329 164.527 153.354 C 164.679 153.407 164.792 153.426 164.95 153.426 C 165.554 153.426 165.997 153.311 166.427 153.049 Z" style="fill: none;"/>
  <path d="M 104.508 154.501 C 103.293 154.501 102.18 154.204 101.327 153.644 C 100.464 153.078 99.818 152.179 99.507 151.117 C 99.197 150.06 99.231 148.733 99.593 147.28 C 99.918 145.976 100.465 144.684 101.202 143.478 C 101.938 142.273 102.85 141.161 103.894 140.196 C 104.942 139.227 106.148 138.435 107.44 137.868 C 108.741 137.298 110.154 137.001 111.572 137.001 C 112.62 137.001 113.538 137.184 114.19 137.536 C 114.545 137.727 114.864 138.039 115.01 138.353 C 115.157 138.669 115.184 139.116 115.089 139.497 C 115 139.853 114.798 140.245 114.537 140.574 C 114.282 140.896 113.959 141.195 113.626 141.417 C 113.275 141.651 112.849 141.801 112.499 141.801 C 112.252 141.801 111.948 141.668 111.768 141.52 L 111.594 141.378 L 111.816 141.565 C 111.176 141.025 110.422 140.801 109.398 140.801 C 108.294 140.801 107.373 141.038 106.497 141.546 C 105.607 142.061 104.906 142.701 104.308 143.541 C 103.706 144.387 103.303 145.259 103.056 146.247 C 102.691 147.714 102.794 148.721 103.37 149.538 C 103.941 150.348 104.764 150.701 106.131 150.701 C 106.727 150.701 107.267 150.62 107.827 150.448 C 108.381 150.278 108.813 150.055 109.211 149.736 C 109.589 149.434 109.777 149.149 109.882 148.73 C 109.983 148.321 109.971 148.194 109.827 148.03 C 109.648 147.825 109.434 147.704 109.042 147.595 C 108.617 147.478 108.151 147.405 107.617 147.374 C 107.203 147.338 106.85 147.277 106.631 147.193 C 106.429 147.116 106.204 146.848 106.156 146.638 C 106.117 146.467 106.134 146.214 106.186 146.005 C 106.304 145.53 106.598 145.06 106.973 144.744 C 107.345 144.431 107.832 144.231 108.284 144.178 C 108.805 144.128 109.43 144.089 110.143 144.064 C 110.852 144.039 111.592 144.022 112.355 144.014 C 113.117 144.005 113.833 144.001 114.501 144.001 C 114.776 144.001 115.098 144.08 115.277 144.216 C 115.411 144.319 115.537 144.56 115.558 144.721 C 115.575 144.854 115.556 145.045 115.518 145.197 C 115.437 145.524 115.265 145.904 115.039 146.266 C 114.811 146.63 114.519 146.973 114.214 147.232 C 113.917 147.484 113.528 147.645 113.177 147.69 L 113.152 147.176 C 113.16 147.33 113.161 147.507 113.154 147.693 C 113.12 147.697 113.086 147.699 113.053 147.701 L 113.154 147.701 C 113.152 147.73 113.151 147.759 113.15 147.788 C 113.138 148.024 113.092 148.31 113.02 148.597 C 112.824 149.383 112.428 150.174 111.884 150.871 C 111.346 151.56 110.66 152.2 109.885 152.737 C 109.111 153.273 108.239 153.713 107.332 154.024 C 106.419 154.337 105.449 154.501 104.508 154.501 Z M 107.008 153.078 C 107.85 152.789 108.599 152.412 109.315 151.915 C 110.031 151.419 110.606 150.883 111.096 150.256 C 111.579 149.636 111.88 149.035 112.05 148.355 C 112.111 148.109 112.142 147.92 112.151 147.739 C 112.161 147.542 112.162 147.379 112.154 147.226 L 112.126 146.701 L 113.053 146.701 C 113.24 146.72 113.35 146.654 113.567 146.47 C 113.811 146.262 114.002 146.038 114.191 145.736 C 114.369 145.451 114.474 145.225 114.536 145.001 C 114.525 145.001 114.514 145.001 114.501 145.001 C 113.836 145.001 113.125 145.005 112.366 145.013 C 111.609 145.022 110.881 145.038 110.178 145.063 C 109.479 145.088 108.885 145.124 108.381 145.174 C 108.084 145.187 107.879 145.288 107.618 145.508 C 107.36 145.726 107.237 145.922 107.156 146.247 C 107.151 146.269 107.146 146.288 107.142 146.304 C 107.271 146.333 107.448 146.357 107.695 146.377 C 108.275 146.413 108.829 146.499 109.308 146.632 C 109.82 146.773 110.292 147.044 110.58 147.372 C 110.903 147.741 110.999 148.381 110.852 148.972 C 110.707 149.553 110.333 150.118 109.836 150.516 C 109.361 150.897 108.759 151.208 108.121 151.404 C 107.49 151.598 106.801 151.701 106.131 151.701 C 104.565 151.701 103.274 151.137 102.553 150.114 C 101.836 149.098 101.679 147.638 102.086 146.005 C 102.355 144.926 102.838 143.882 103.493 142.961 C 104.152 142.035 105.014 141.249 105.995 140.681 C 106.989 140.105 108.169 139.801 109.398 139.801 C 110.575 139.801 111.643 140.16 112.445 140.787 L 112.467 140.805 C 112.474 140.802 112.485 140.801 112.499 140.801 C 112.683 140.801 112.823 140.751 113.072 140.585 C 113.338 140.407 113.546 140.215 113.753 139.953 C 113.955 139.699 114.058 139.499 114.119 139.255 C 114.178 139.019 114.173 138.924 114.103 138.774 C 114.032 138.622 113.949 138.542 113.716 138.416 C 113.193 138.134 112.523 138.001 111.572 138.001 C 110.256 138.001 109.049 138.255 107.842 138.784 C 106.626 139.317 105.56 140.017 104.573 140.931 C 103.58 141.849 102.756 142.854 102.056 143.999 C 101.357 145.143 100.87 146.293 100.563 147.522 C 100.227 148.869 100.2 149.925 100.467 150.835 C 100.732 151.739 101.162 152.341 101.875 152.808 C 102.597 153.281 103.422 153.501 104.508 153.501 C 105.366 153.501 106.171 153.365 107.008 153.078 Z M 116.146 154.426 C 115.904 154.426 115.625 154.378 115.394 154.298 C 115.08 154.189 114.782 153.835 114.683 153.488 C 114.589 153.155 114.627 152.638 114.766 152.08 C 114.853 151.731 114.997 151.278 115.189 150.744 C 115.379 150.217 115.575 149.689 115.768 149.187 C 116.107 148.359 116.452 147.453 116.808 146.458 C 117.161 145.469 117.456 144.501 117.698 143.53 C 117.784 143.185 117.864 142.829 117.942 142.45 C 117.964 142.347 117.983 142.245 118.001 142.146 C 117.968 142.149 117.936 142.151 117.906 142.151 C 117.743 142.151 117.488 142.063 117.366 141.945 C 117.247 141.83 117.15 141.591 117.136 141.43 C 117.118 141.208 117.148 140.922 117.214 140.655 C 117.363 140.06 117.669 139.504 118.062 139.127 C 118.436 138.769 118.966 138.432 119.577 138.15 C 120.384 137.754 121.234 137.456 122.084 137.275 C 122.926 137.095 123.738 137.001 124.466 137.001 C 125.551 137.001 126.541 137.21 127.309 137.607 C 128.089 138.011 128.709 138.657 129.028 139.405 C 129.347 140.155 129.379 141.122 129.129 142.122 C 128.874 143.144 128.377 144.108 127.694 144.902 C 127.021 145.683 126.22 146.351 125.356 146.847 C 124.497 147.34 124.034 147.51 123.393 147.697 C 123.492 147.924 123.51 147.973 123.71 148.381 C 123.906 148.781 124.102 149.119 124.325 149.435 C 124.952 150.348 125.593 150.701 126.45 150.701 C 126.7 150.701 126.897 150.687 127.084 150.657 C 127.202 150.638 127.403 150.662 127.516 150.716 C 127.629 150.77 127.773 150.912 127.832 151.016 C 127.949 151.223 127.94 151.606 127.861 151.922 C 127.771 152.283 127.589 152.682 127.353 153.039 C 127.106 153.414 126.728 153.764 126.311 154.008 C 125.877 154.261 125.284 154.401 124.677 154.401 C 123.938 154.401 123.193 154.116 122.643 153.623 C 122.121 153.156 121.656 152.524 121.305 151.809 C 120.963 151.112 120.678 150.355 120.467 149.583 C 120.259 148.822 120.094 148.079 119.982 147.433 C 119.96 147.24 119.945 147.042 119.938 146.857 C 119.931 146.647 119.956 146.406 120.006 146.205 C 120.096 145.844 120.337 145.469 120.628 145.236 C 120.845 145.062 121.168 144.921 121.475 144.86 C 121.76 144.804 122.169 144.776 122.653 144.776 C 123.462 144.776 124.085 144.582 124.691 144.145 C 125.293 143.711 125.621 143.236 125.791 142.555 C 125.882 142.189 125.89 141.957 125.828 141.723 C 125.769 141.501 125.698 141.399 125.5 141.256 C 125.043 140.925 124.485 140.776 123.649 140.776 C 122.952 140.776 122.38 140.86 121.66 141.039 C 121.337 142.132 120.986 143.12 120.451 144.526 C 120.145 145.356 119.854 146.174 119.577 146.987 C 119.301 147.795 119.085 148.517 118.922 149.172 C 118.782 149.731 118.717 150.183 118.716 150.591 C 118.714 150.952 118.782 151.187 118.994 151.426 C 119.214 151.756 119.336 152.223 119.243 152.597 C 119.124 153.074 118.699 153.564 118.144 153.903 C 117.59 154.241 116.875 154.426 116.146 154.426 Z M 117.623 153.049 C 118.05 152.788 118.209 152.611 118.272 152.355 C 118.312 152.196 118.327 152.164 118.196 152.028 C 117.904 151.635 117.713 151.108 117.716 150.586 C 117.718 150.11 117.8 149.538 117.951 148.93 C 118.12 148.252 118.349 147.49 118.63 146.665 C 118.91 145.845 119.205 145.014 119.514 144.178 C 120.044 142.785 120.466 141.557 120.782 140.484 L 120.862 140.216 L 121.131 140.144 C 122.018 139.904 122.88 139.776 123.649 139.776 C 124.614 139.776 125.485 140.01 126.087 140.446 C 126.418 140.686 126.692 141.08 126.794 141.467 C 126.893 141.84 126.878 142.329 126.761 142.797 C 126.549 143.649 126.014 144.424 125.276 144.957 C 124.541 145.486 123.61 145.776 122.653 145.776 C 122.203 145.776 121.891 145.798 121.668 145.842 C 121.467 145.881 121.368 145.924 121.253 146.016 C 121.086 146.15 121.027 146.241 120.976 146.447 C 120.943 146.579 120.933 146.68 120.938 146.82 C 120.944 146.985 120.955 147.137 120.974 147.305 C 121.08 147.922 121.23 148.58 121.432 149.319 C 121.63 150.047 121.881 150.715 122.202 151.368 C 122.515 152.003 122.865 152.479 123.31 152.879 C 123.727 153.252 124.116 153.401 124.677 153.401 C 125.17 153.401 125.499 153.324 125.806 153.144 C 126.13 152.955 126.337 152.763 126.518 152.488 C 126.71 152.197 126.821 151.955 126.889 151.685 C 126.749 151.696 126.601 151.701 126.45 151.701 C 125.341 151.701 124.294 151.071 123.512 150.017 C 123.267 149.667 123.025 149.254 122.812 148.821 C 122.603 148.395 122.411 147.959 122.245 147.533 L 122.025 146.972 L 122.615 146.86 C 123.342 146.723 124.063 146.436 124.857 145.98 C 125.647 145.526 126.317 144.968 126.936 144.25 C 127.543 143.544 127.932 142.791 128.159 141.88 C 128.375 141.013 128.356 140.38 128.107 139.797 C 127.858 139.212 127.486 138.825 126.849 138.495 C 126.2 138.159 125.448 138.001 124.466 138.001 C 123.795 138.001 123.088 138.082 122.293 138.252 C 121.505 138.421 120.764 138.678 120.013 139.05 C 119.461 139.299 119.059 139.558 118.754 139.85 C 118.469 140.123 118.302 140.426 118.185 140.897 C 118.166 140.972 118.153 141.036 118.144 141.093 C 118.24 141.062 118.321 141.031 118.403 140.994 L 119.197 140.637 L 119.103 141.504 C 119.065 141.867 119.003 142.257 118.922 142.652 C 118.842 143.04 118.756 143.417 118.668 143.772 C 118.42 144.768 118.111 145.783 117.749 146.794 C 117.39 147.799 117.038 148.722 116.695 149.56 C 116.506 150.056 116.318 150.56 116.13 151.083 C 115.944 151.599 115.815 152.004 115.736 152.322 C 115.618 152.798 115.598 153.047 115.645 153.214 C 115.689 153.367 115.653 153.329 115.723 153.354 C 115.875 153.407 115.988 153.426 116.146 153.426 C 116.75 153.426 117.193 153.311 117.623 153.049 Z M 140.14 154.451 C 139.498 154.451 138.867 154.086 138.557 153.533 C 138.273 153.029 138.088 152.193 138.002 151.143 C 137.961 150.644 137.943 150.145 137.952 149.668 L 138.933 148.585 C 138.612 148.939 138.297 149.219 138.045 149.354 C 138.018 149.369 137.989 149.382 137.96 149.396 C 137.976 148.984 138.012 148.574 138.066 148.183 L 137.896 149.423 C 137.644 149.522 137.322 149.576 137.005 149.576 C 136.185 149.576 135.315 149.563 134.401 149.538 C 133.491 149.513 132.952 149.5 132.331 149.484 C 132.266 149.67 132.241 149.74 132.14 150.045 C 132.041 150.345 131.958 150.631 131.886 150.922 C 131.822 151.178 131.772 151.422 131.732 151.678 C 131.69 151.948 131.649 152.193 131.603 152.446 C 131.49 153.026 131.102 153.6 130.529 153.933 C 129.982 154.251 129.3 154.426 128.621 154.426 C 128.28 154.426 127.881 154.296 127.692 154.084 C 127.494 153.862 127.43 153.427 127.511 153.105 C 127.591 152.783 127.793 152.31 128.089 151.731 C 128.265 151.354 128.409 151.037 128.526 150.766 C 128.638 150.504 128.705 150.322 128.74 150.18 C 128.787 149.989 128.793 149.905 128.775 149.811 C 128.768 149.777 128.774 149.767 128.777 149.764 C 128.775 149.765 128.768 149.766 128.754 149.763 C 128.605 149.654 128.438 149.474 128.371 149.312 C 128.301 149.146 128.288 148.883 128.333 148.705 C 128.393 148.464 128.527 148.159 128.702 147.852 C 128.877 147.548 129.091 147.246 129.318 146.985 C 129.545 146.723 129.829 146.482 130.024 146.354 C 130.182 146.277 130.382 146.2 130.582 146.144 C 130.79 146.086 130.889 146.074 131.068 146.052 C 132.193 144.17 133.216 142.741 134.378 141.366 C 135.544 139.985 136.719 138.887 137.854 138.124 C 139.006 137.348 140.175 136.926 141.21 136.926 C 141.552 136.926 141.912 137 142.161 137.129 C 142.423 137.266 142.68 137.543 142.798 137.815 C 143.01 138.307 142.97 139.131 142.734 140.097 L 142.454 141.222 C 142.038 142.886 141.785 144.394 141.683 145.787 C 141.582 147.181 141.601 148.283 141.744 149.13 C 141.862 150.003 142.12 150.637 142.576 151.17 C 142.756 151.368 142.916 151.603 142.973 151.802 C 143.026 151.991 143.029 152.253 142.98 152.447 C 142.899 152.773 142.666 153.142 142.371 153.432 C 142.088 153.711 141.723 153.967 141.347 154.15 C 140.959 154.339 140.518 154.451 140.14 154.451 Z M 140.908 153.252 C 141.215 153.102 141.446 152.941 141.67 152.72 C 141.883 152.51 141.967 152.379 142.01 152.205 C 142.028 152.132 142.028 152.136 142.011 152.075 C 141.996 152.023 141.97 151.978 141.838 151.846 C 141.299 151.181 140.907 150.27 140.756 149.28 C 140.606 148.361 140.581 147.154 140.686 145.715 C 140.791 144.275 141.06 142.682 141.484 140.98 L 141.764 139.855 C 141.986 138.987 142.005 138.503 141.88 138.212 C 141.828 138.092 141.812 138.075 141.699 138.016 C 141.572 137.95 141.452 137.926 141.21 137.926 C 140.345 137.926 139.463 138.246 138.412 138.953 C 137.343 139.673 136.27 140.675 135.142 142.011 C 134.009 143.352 132.901 144.931 131.795 146.782 L 131.66 147.009 L 131.399 147.025 C 131.166 147.039 131.001 147.066 130.851 147.108 C 130.692 147.152 130.594 147.187 130.492 147.238 C 130.377 147.312 130.265 147.42 130.072 147.642 C 129.878 147.865 129.72 148.087 129.57 148.35 C 129.426 148.601 129.348 148.776 129.307 148.932 C 129.309 148.933 129.311 148.934 129.314 148.935 C 129.505 149.091 129.707 149.37 129.756 149.616 C 129.8 149.839 129.779 150.146 129.71 150.422 C 129.662 150.614 129.568 150.873 129.444 151.161 C 129.324 151.44 129.172 151.776 128.992 152.162 C 128.708 152.713 128.542 153.102 128.481 153.347 C 128.468 153.399 128.457 153.421 128.449 153.429 C 128.46 153.432 128.487 153.426 128.621 153.426 C 129.176 153.426 129.597 153.318 130.026 153.069 C 130.427 152.835 130.593 152.659 130.613 152.306 C 130.658 152.059 130.703 151.788 130.744 151.524 C 130.788 151.246 130.846 150.958 130.915 150.68 C 130.992 150.371 131.086 150.049 131.191 149.732 C 131.294 149.42 131.401 149.11 131.51 148.806 L 131.632 148.468 L 131.992 148.476 C 132.705 148.493 133.518 148.514 134.429 148.539 C 135.336 148.564 136.192 148.576 137.005 148.576 C 137.289 148.576 137.434 148.547 137.572 148.473 C 137.724 148.391 137.91 148.229 138.189 147.917 L 139.229 146.751 L 137.11 146.751 C 136.699 146.751 136.189 146.763 135.57 146.788 C 134.948 146.813 134.224 146.842 133.399 146.876 L 132.492 146.912 L 132.945 146.126 C 133.989 144.319 135.083 142.839 136.194 141.745 C 137.323 140.632 138.454 140.001 139.393 140.001 C 139.584 140.001 139.806 140.038 139.954 140.101 C 140.124 140.174 140.331 140.369 140.405 140.539 C 140.521 140.805 140.482 141.298 140.354 141.822 L 139.993 143.272 C 139.853 143.833 139.733 144.364 139.63 144.874 C 139.527 145.389 139.435 145.875 139.352 146.339 L 139.279 146.751 L 139.275 146.751 L 139.056 148.319 C 138.996 148.755 138.962 149.188 138.953 149.649 C 138.943 150.111 138.958 150.572 138.999 151.059 C 139.073 152.04 139.215 152.664 139.429 153.044 C 139.614 153.374 139.748 153.451 140.14 153.451 C 140.395 153.451 140.612 153.396 140.908 153.252 Z M 134.28 145.839 C 134.735 145.821 134.907 145.814 135.53 145.789 C 136.157 145.764 136.687 145.751 137.11 145.751 L 138.442 145.751 C 138.506 145.406 138.546 145.197 138.65 144.678 C 138.755 144.155 138.88 143.602 139.023 143.03 L 139.384 141.58 C 139.467 141.256 139.496 141.09 139.497 141.004 C 139.474 141.002 139.443 141.001 139.393 141.001 C 138.699 141.001 137.931 141.437 136.895 142.457 C 135.84 143.497 135.138 144.451 134.28 145.839 Z M 147.635 154.476 C 146.166 154.476 145.007 154.047 144.489 153.265 C 143.988 152.508 143.882 151.419 144.172 150.255 C 144.247 149.955 144.366 149.587 144.52 149.176 C 144.67 148.773 144.862 148.279 145.087 147.71 C 145.422 146.899 145.699 146.182 145.924 145.547 C 146.146 144.917 146.348 144.236 146.537 143.48 C 146.754 142.607 146.755 142.573 146.834 142.201 C 146.823 142.201 146.81 142.201 146.795 142.201 C 146.646 142.201 146.409 142.117 146.295 142.012 C 146.188 141.914 146.088 141.711 146.061 141.572 C 146.018 141.351 146.051 141.015 146.135 140.68 C 146.265 140.158 146.524 139.653 146.855 139.281 C 147.18 138.916 147.67 138.564 148.257 138.261 C 148.844 137.947 149.573 137.667 150.393 137.444 C 151.221 137.218 152.11 137.101 152.993 137.101 C 154.453 137.101 155.638 137.492 156.281 138.22 C 156.925 138.951 157.125 140.039 156.843 141.172 C 156.664 141.887 156.325 142.595 155.871 143.201 C 155.422 143.801 155.302 143.884 154.961 144.192 C 155.578 144.449 155.944 144.585 156.379 145.288 C 156.812 145.987 156.886 147.014 156.61 148.122 C 156.315 149.303 155.682 150.433 154.778 151.394 C 153.881 152.348 152.76 153.118 151.504 153.659 C 150.276 154.191 148.953 154.476 147.635 154.476 Z M 151.102 152.743 C 152.27 152.251 153.224 151.587 154.05 150.708 C 154.87 149.836 155.377 148.933 155.639 147.88 C 155.878 146.922 155.839 146.315 155.529 145.814 C 155.222 145.317 154.734 145.032 153.815 144.894 L 152.57 144.707 L 153.612 143.99 C 154.207 143.581 154.671 143.135 155.071 142.601 C 155.466 142.074 155.718 141.548 155.872 140.93 C 156.105 139.996 156.004 139.418 155.531 138.882 C 155.056 138.344 154.298 138.101 152.993 138.101 C 152.175 138.101 151.419 138.201 150.655 138.408 C 149.884 138.619 149.259 138.855 148.73 139.141 C 148.209 139.405 147.855 139.661 147.602 139.946 C 147.354 140.224 147.208 140.51 147.105 140.922 C 147.088 140.992 147.074 141.051 147.063 141.102 C 147.117 141.077 147.18 141.045 147.255 141.006 L 148.132 140.549 L 147.977 141.529 C 147.887 142.093 147.729 142.831 147.507 143.722 C 147.313 144.499 147.097 145.226 146.866 145.88 C 146.637 146.529 146.352 147.267 146.013 148.088 C 145.79 148.652 145.605 149.129 145.456 149.526 C 145.311 149.915 145.209 150.23 145.143 150.497 C 144.893 151.5 144.952 152.152 145.323 152.712 C 145.677 153.247 146.337 153.476 147.635 153.476 C 148.85 153.476 149.972 153.244 151.102 152.743 Z M 147.08 150.983 C 146.618 150.497 146.514 149.588 146.759 148.605 C 146.834 148.304 146.964 147.906 147.141 147.437 C 147.314 146.976 147.539 146.4 147.806 145.732 C 148.211 144.773 148.561 143.859 148.864 142.976 C 149.166 142.094 149.415 141.261 149.616 140.455 L 149.691 140.154 L 149.993 140.088 C 150.843 139.901 151.578 139.801 152.144 139.801 C 152.932 139.801 153.626 139.982 154.009 140.32 C 154.417 140.681 154.569 141.366 154.412 141.997 C 154.045 143.468 152.572 144.558 150.317 145.133 C 150.127 145.148 150.144 145.176 150.095 145.372 C 150.002 145.746 150.014 145.925 150.129 146.133 C 150.232 146.319 150.248 146.326 150.493 146.326 C 150.688 146.326 150.87 146.309 151.02 146.28 C 151.444 146.229 151.814 146.201 152.099 146.201 C 152.797 146.201 153.47 146.384 153.951 146.714 C 154.23 146.905 154.471 147.252 154.553 147.579 C 154.631 147.89 154.614 148.307 154.516 148.697 C 154.364 149.308 153.979 149.909 153.458 150.356 C 152.951 150.79 152.298 151.143 151.593 151.365 C 150.895 151.586 150.113 151.701 149.327 151.701 C 148.355 151.701 147.522 151.448 147.08 150.983 Z M 149.327 150.701 C 150.04 150.701 150.669 150.608 151.292 150.412 C 151.907 150.217 152.381 149.962 152.807 149.596 C 153.219 149.243 153.433 148.911 153.546 148.455 C 153.619 148.162 153.627 147.995 153.583 147.823 C 153.544 147.667 153.518 147.63 153.385 147.538 C 153.04 147.302 152.667 147.201 152.099 147.201 C 151.85 147.201 151.555 147.222 151.154 147.271 C 150.957 147.305 150.73 147.326 150.493 147.326 C 150.003 147.326 149.486 147.033 149.255 146.619 C 149.044 146.239 148.997 145.69 149.114 145.178 C 148.991 145.487 148.863 145.8 148.73 146.116 C 148.465 146.779 148.248 147.334 148.077 147.79 C 147.908 148.238 147.795 148.581 147.729 148.847 C 147.525 149.664 147.553 150.03 147.804 150.294 C 148.075 150.579 148.498 150.701 149.327 150.701 Z M 149.252 144.825 C 149.43 144.525 149.736 144.283 150.053 144.169 C 152.13 143.677 153.152 142.918 153.442 141.755 C 153.546 141.336 153.532 141.233 153.346 141.069 C 153.135 140.882 152.807 140.801 152.144 140.801 C 151.644 140.801 151.175 140.864 150.508 141 C 150.315 141.737 150.119 142.399 149.81 143.301 C 149.64 143.797 149.454 144.305 149.252 144.825 Z M 158.673 154.426 C 158.187 154.426 157.682 154.24 157.408 153.936 C 157.104 153.6 157.066 152.888 157.249 152.155 C 157.336 151.804 157.487 151.344 157.69 150.801 C 157.89 150.267 158.094 149.722 158.294 149.189 C 158.77 148.01 159.154 146.997 159.451 146.138 C 159.747 145.282 160.003 144.419 160.225 143.53 C 160.429 142.71 160.571 141.966 160.656 141.266 C 160.735 140.609 160.673 140.09 160.456 139.648 C 160.364 139.383 160.313 139.065 160.365 138.855 C 160.44 138.557 160.708 138.209 161.034 137.948 C 161.344 137.7 161.727 137.477 162.121 137.314 C 162.521 137.148 162.941 137.051 163.281 137.051 C 163.607 137.051 163.976 137.157 164.195 137.331 C 164.421 137.511 164.601 137.861 164.642 138.173 C 164.71 138.687 164.647 139.353 164.467 140.072 C 164.361 140.5 164.202 141.034 163.996 141.658 C 163.791 142.277 163.587 142.877 163.384 143.454 C 163.181 144.033 163.013 144.486 162.882 144.809 C 162.547 145.688 162.255 146.499 161.998 147.26 C 161.743 148.019 161.554 148.65 161.423 149.172 C 161.272 149.778 161.211 150.24 161.227 150.631 C 161.24 150.988 161.305 151.2 161.505 151.406 C 161.724 151.709 161.853 152.162 161.763 152.522 C 161.637 153.027 161.219 153.536 160.669 153.885 C 160.12 154.234 159.404 154.426 158.673 154.426 Z M 160.132 153.041 C 160.552 152.775 160.719 152.575 160.793 152.28 C 160.828 152.14 160.853 152.143 160.738 152.047 C 160.449 151.686 160.247 151.181 160.227 150.671 C 160.209 150.195 160.288 149.591 160.453 148.93 C 160.589 148.385 160.79 147.716 161.051 146.942 C 161.31 146.17 161.611 145.335 161.949 144.448 C 162.075 144.139 162.241 143.694 162.441 143.123 C 162.642 142.55 162.843 141.959 163.046 141.344 C 163.247 140.735 163.396 140.236 163.497 139.83 C 163.658 139.183 163.704 138.707 163.651 138.304 C 163.632 138.157 163.637 138.164 163.574 138.114 C 163.505 138.06 163.47 138.051 163.281 138.051 C 163.054 138.051 162.828 138.104 162.503 138.238 C 162.172 138.375 161.912 138.527 161.659 138.729 C 161.423 138.918 161.361 138.995 161.335 139.097 C 161.33 139.121 161.318 139.111 161.385 139.279 C 161.64 139.868 161.742 140.61 161.648 141.386 C 161.559 142.12 161.406 142.925 161.195 143.772 C 160.968 144.683 160.7 145.587 160.397 146.464 C 160.095 147.338 159.702 148.372 159.223 149.557 C 159.024 150.089 158.826 150.618 158.627 151.151 C 158.431 151.675 158.298 152.081 158.219 152.397 C 158.07 152.997 158.062 153.169 158.15 153.266 C 158.267 153.396 158.358 153.426 158.673 153.426 C 159.275 153.426 159.711 153.31 160.132 153.041 Z M 164.95 154.426 C 164.708 154.426 164.429 154.378 164.198 154.298 C 163.884 154.189 163.586 153.835 163.487 153.488 C 163.393 153.155 163.431 152.638 163.57 152.08 C 163.657 151.731 163.801 151.278 163.993 150.744 C 164.183 150.217 164.379 149.689 164.572 149.187 C 164.911 148.359 165.256 147.453 165.612 146.458 C 165.965 145.469 166.26 144.501 166.502 143.53 C 166.588 143.185 166.668 142.829 166.746 142.45 C 166.768 142.347 166.787 142.245 166.805 142.146 C 166.772 142.149 166.74 142.151 166.71 142.151 C 166.547 142.151 166.292 142.063 166.17 141.945 C 166.051 141.83 165.954 141.591 165.94 141.43 C 165.922 141.208 165.952 140.922 166.018 140.655 C 166.167 140.06 166.473 139.504 166.866 139.127 C 167.24 138.769 167.77 138.432 168.381 138.15 C 169.186 137.756 170.038 137.456 170.888 137.275 C 171.73 137.095 172.542 137.001 173.27 137.001 C 174.355 137.001 175.345 137.21 176.113 137.607 C 176.893 138.011 177.513 138.657 177.832 139.405 C 178.151 140.155 178.183 141.122 177.933 142.122 C 177.678 143.144 177.181 144.108 176.498 144.902 C 175.825 145.683 175.024 146.351 174.16 146.847 C 173.301 147.34 172.838 147.51 172.197 147.697 C 172.296 147.924 172.314 147.973 172.514 148.381 C 172.71 148.781 172.906 149.119 173.129 149.435 C 173.756 150.348 174.397 150.701 175.254 150.701 C 175.504 150.701 175.701 150.687 175.888 150.657 C 176.006 150.638 176.207 150.662 176.32 150.716 C 176.433 150.77 176.577 150.912 176.636 151.016 C 176.753 151.223 176.744 151.606 176.665 151.922 C 176.575 152.283 176.393 152.682 176.157 153.039 C 175.91 153.414 175.532 153.764 175.115 154.008 C 174.681 154.261 174.088 154.401 173.481 154.401 C 172.742 154.401 171.997 154.116 171.447 153.623 C 170.925 153.156 170.46 152.524 170.109 151.809 C 169.767 151.112 169.482 150.355 169.271 149.583 C 169.063 148.822 168.898 148.079 168.786 147.433 C 168.764 147.24 168.749 147.042 168.742 146.857 C 168.735 146.647 168.76 146.406 168.81 146.205 C 168.9 145.844 169.141 145.469 169.432 145.236 C 169.649 145.062 169.972 144.921 170.279 144.86 C 170.564 144.804 170.973 144.776 171.457 144.776 C 172.266 144.776 172.889 144.582 173.495 144.145 C 174.097 143.711 174.425 143.236 174.595 142.555 C 174.686 142.189 174.694 141.957 174.632 141.723 C 174.573 141.501 174.502 141.399 174.304 141.256 C 173.847 140.925 173.289 140.776 172.453 140.776 C 171.756 140.776 171.184 140.86 170.464 141.039 C 170.141 142.132 169.79 143.12 169.255 144.526 C 168.949 145.356 168.658 146.174 168.381 146.987 C 168.105 147.795 167.889 148.517 167.726 149.172 C 167.586 149.731 167.521 150.183 167.52 150.591 C 167.518 150.952 167.586 151.187 167.798 151.426 C 168.018 151.756 168.14 152.223 168.047 152.597 C 167.928 153.074 167.503 153.564 166.948 153.903 C 166.394 154.241 165.679 154.426 164.95 154.426 Z M 166.427 153.049 C 166.854 152.788 167.013 152.611 167.076 152.355 C 167.116 152.196 167.131 152.164 167 152.028 C 166.708 151.635 166.517 151.108 166.52 150.586 C 166.522 150.11 166.604 149.538 166.755 148.93 C 166.924 148.252 167.153 147.49 167.434 146.665 C 167.714 145.845 168.009 145.014 168.318 144.178 C 168.848 142.785 169.27 141.557 169.587 140.484 L 169.666 140.216 L 169.935 140.144 C 170.822 139.904 171.684 139.776 172.453 139.776 C 173.418 139.776 174.289 140.01 174.891 140.446 C 175.222 140.686 175.496 141.08 175.598 141.467 C 175.697 141.84 175.682 142.329 175.565 142.797 C 175.353 143.649 174.818 144.424 174.08 144.957 C 173.345 145.486 172.414 145.776 171.457 145.776 C 171.007 145.776 170.695 145.798 170.472 145.842 C 170.271 145.881 170.172 145.924 170.057 146.016 C 169.89 146.15 169.831 146.241 169.78 146.447 C 169.747 146.579 169.737 146.68 169.742 146.82 C 169.748 146.985 169.759 147.137 169.778 147.305 C 169.884 147.922 170.034 148.58 170.236 149.319 C 170.434 150.047 170.685 150.715 171.006 151.368 C 171.319 152.003 171.669 152.479 172.114 152.879 C 172.531 153.252 172.92 153.401 173.481 153.401 C 173.974 153.401 174.303 153.324 174.61 153.144 C 174.934 152.955 175.141 152.763 175.322 152.488 C 175.514 152.197 175.625 151.955 175.693 151.685 C 175.553 151.696 175.405 151.701 175.254 151.701 C 174.145 151.701 173.098 151.071 172.316 150.017 C 172.071 149.667 171.829 149.254 171.616 148.821 C 171.407 148.395 171.215 147.959 171.049 147.533 L 170.829 146.972 L 171.419 146.86 C 172.146 146.723 172.867 146.436 173.661 145.98 C 174.451 145.526 175.121 144.968 175.74 144.25 C 176.347 143.544 176.736 142.791 176.963 141.88 C 177.179 141.013 177.16 140.38 176.912 139.797 C 176.662 139.212 176.29 138.825 175.653 138.495 C 175.004 138.159 174.252 138.001 173.27 138.001 C 172.599 138.001 171.892 138.082 171.097 138.252 C 170.309 138.421 169.568 138.678 168.817 139.05 C 168.265 139.299 167.863 139.558 167.558 139.85 C 167.273 140.123 167.106 140.426 166.989 140.897 C 166.97 140.972 166.957 141.036 166.948 141.093 C 167.044 141.062 167.125 141.031 167.207 140.994 L 168.001 140.637 L 167.908 141.504 C 167.869 141.867 167.807 142.257 167.726 142.652 C 167.646 143.04 167.561 143.417 167.472 143.772 C 167.224 144.768 166.915 145.783 166.553 146.794 C 166.194 147.799 165.842 148.722 165.499 149.56 C 165.31 150.056 165.122 150.56 164.934 151.083 C 164.748 151.599 164.619 152.004 164.54 152.322 C 164.422 152.798 164.402 153.047 164.449 153.214 C 164.493 153.367 164.457 153.329 164.527 153.354 C 164.679 153.407 164.792 153.426 164.95 153.426 C 165.554 153.426 165.997 153.311 166.427 153.049 Z" style="fill: none;"/>
  <text style="white-space: pre; fill: rgb(51, 51, 51); font-family: Arial, sans-serif; font-size: 15.7px;" x="113.356" y="158.81"> </text>
  <text style="white-space: pre; fill: rgb(51, 51, 51); font-family: Arial, sans-serif; font-size: 15.7px;" x="136.925" y="143.659"> </text>
</svg>