<?xml version="1.0" encoding="utf-8"?>
<svg viewBox="94.837 121.773 118.967 39.843" xmlns="http://www.w3.org/2000/svg">
  <text style="fill: rgb(255, 255, 255); font-family: Arial, sans-serif; font-size: 16.7px; font-style: italic; font-weight: 700; white-space: pre;" x="98.204" y="144.781"> </text>
  <text style="white-space: pre; fill: rgb(51, 51, 51); font-family: Arial, sans-serif; font-size: 15.7px;" x="158.81" y="132.435"> </text>
  <text style="white-space: pre; fill: rgb(51, 51, 51); font-family: Arial, sans-serif; font-size: 15.7px;" x="186.308" y="131.313"> </text>
  <text style="white-space: pre; fill: rgb(51, 51, 51); font-family: Arial, sans-serif; font-size: 15.7px;" x="130.191" y="150.393"> </text>
  <text style="white-space: pre; fill: rgb(51, 51, 51); font-family: Arial, sans-serif; font-size: 15.7px;" x="113.917" y="128.507"> </text>
  <path d="M 106.344 154.001 C 104.747 154.001 103.4 153.621 102.305 152.859 C 101.21 152.097 100.463 150.991 100.063 149.542 C 99.663 148.093 99.705 146.336 100.19 144.273 C 100.629 142.405 101.347 140.605 102.345 138.873 C 103.342 137.142 104.548 135.582 105.963 134.194 C 107.378 132.807 108.956 131.707 110.698 130.896 C 112.44 130.086 114.26 129.68 116.159 129.68 C 117.549 129.68 118.651 129.913 119.468 130.38 C 120.284 130.848 120.586 131.534 120.373 132.444 C 120.269 132.886 120.056 133.322 119.735 133.751 C 119.415 134.182 119.046 134.544 118.629 134.839 C 118.212 135.134 117.818 135.281 117.448 135.281 C 117.216 135.281 117.046 135.219 116.936 135.097 C 115.933 134.238 114.668 133.807 113.139 133.807 C 111.519 133.807 110.059 134.207 108.76 135.004 C 107.461 135.803 106.374 136.854 105.501 138.156 C 104.627 139.457 104.012 140.871 103.654 142.393 C 103.117 144.678 103.298 146.495 104.196 147.847 C 105.094 149.199 106.561 149.874 108.6 149.874 C 109.48 149.874 110.334 149.738 111.161 149.468 C 111.989 149.199 112.707 148.805 113.314 148.289 C 113.922 147.773 114.311 147.147 114.485 146.41 C 114.658 145.673 114.583 145.108 114.258 144.715 C 113.933 144.321 113.457 144.032 112.829 143.848 C 112.2 143.664 111.499 143.547 110.723 143.499 C 110.179 143.45 109.785 143.377 109.542 143.278 C 109.299 143.179 109.234 142.884 109.35 142.393 C 109.489 141.804 109.778 141.313 110.218 140.919 C 110.657 140.526 111.137 140.305 111.659 140.256 C 112.371 140.182 113.218 140.126 114.199 140.09 C 115.18 140.053 116.199 140.029 117.256 140.016 C 118.312 140.004 119.303 139.998 120.23 139.998 C 120.531 139.998 120.749 140.053 120.885 140.163 C 121.021 140.274 121.05 140.502 120.968 140.846 C 120.87 141.263 120.676 141.718 120.388 142.209 C 120.098 142.7 119.763 143.119 119.381 143.462 C 118.999 143.805 118.612 143.978 118.218 143.978 L 117.661 143.978 C 117.674 144.224 117.673 144.5 117.658 144.806 C 117.644 145.114 117.591 145.464 117.498 145.857 C 117.245 146.938 116.76 147.964 116.045 148.933 C 115.331 149.905 114.456 150.77 113.42 151.532 C 112.384 152.294 111.259 152.896 110.043 153.338 C 108.828 153.78 107.595 154.001 106.344 154.001 Z M 122.515 153.89 C 122.236 153.89 121.965 153.842 121.698 153.743 C 121.432 153.644 121.25 153.411 121.151 153.043 C 121.052 152.674 121.093 152.11 121.271 151.348 C 121.387 150.857 121.577 150.223 121.839 149.449 C 122.102 148.675 122.366 147.921 122.632 147.184 C 123.106 145.956 123.591 144.604 124.089 143.13 C 124.586 141.656 125.004 140.194 125.344 138.745 C 125.466 138.229 125.582 137.688 125.691 137.124 C 125.801 136.559 125.882 136.018 125.934 135.502 C 125.777 135.576 125.605 135.644 125.417 135.704 C 125.229 135.766 125.077 135.797 124.961 135.797 C 124.729 135.797 124.603 135.668 124.583 135.41 C 124.562 135.152 124.593 134.851 124.673 134.508 C 124.858 133.722 125.187 133.088 125.658 132.609 C 126.129 132.13 126.771 131.695 127.58 131.302 C 128.663 130.737 129.773 130.324 130.91 130.066 C 132.048 129.808 133.103 129.68 134.075 129.68 C 135.511 129.68 136.721 129.95 137.705 130.491 C 138.69 131.032 139.38 131.792 139.774 132.776 C 140.168 133.759 140.203 134.938 139.881 136.313 C 139.546 137.739 138.929 139.003 138.033 140.109 C 137.136 141.214 136.114 142.116 134.965 142.816 C 133.816 143.517 132.706 143.978 131.636 144.199 C 131.861 144.814 132.117 145.427 132.401 146.041 C 132.685 146.656 132.989 147.209 133.314 147.7 C 134.293 149.149 135.466 149.874 136.832 149.874 C 137.203 149.874 137.532 149.849 137.822 149.8 C 137.966 149.775 138.075 149.831 138.148 149.965 C 138.221 150.101 138.21 150.365 138.118 150.758 C 138.008 151.225 137.804 151.697 137.506 152.176 C 137.209 152.655 136.802 153.055 136.287 153.375 C 135.772 153.694 135.133 153.854 134.369 153.854 C 133.465 153.854 132.678 153.534 132.006 152.896 C 131.333 152.257 130.768 151.439 130.307 150.444 C 129.846 149.449 129.473 148.4 129.188 147.294 C 128.904 146.189 128.686 145.169 128.535 144.236 C 128.506 143.966 128.488 143.701 128.479 143.443 C 128.47 143.185 128.495 142.934 128.551 142.688 C 128.65 142.271 128.858 141.926 129.176 141.656 C 129.408 141.46 129.701 141.325 130.054 141.251 C 130.407 141.177 130.908 141.14 131.556 141.14 C 132.782 141.14 133.862 140.784 134.794 140.072 C 135.726 139.36 136.324 138.439 136.59 137.308 C 136.878 136.08 136.655 135.183 135.919 134.618 C 135.184 134.054 134.191 133.771 132.94 133.771 C 131.922 133.771 130.816 133.943 129.623 134.286 C 129.178 135.883 128.587 137.713 127.846 139.777 C 127.419 141.005 127.011 142.221 126.624 143.425 C 126.237 144.629 125.928 145.722 125.698 146.705 C 125.496 147.564 125.393 148.32 125.39 148.97 C 125.388 149.622 125.564 150.18 125.917 150.648 C 126.16 150.991 126.236 151.36 126.144 151.753 C 126.017 152.294 125.611 152.785 124.929 153.227 C 124.245 153.669 123.441 153.89 122.515 153.89 Z M 155.852 153.927 C 155.135 153.927 154.603 153.602 154.259 152.95 C 153.914 152.3 153.686 151.225 153.575 149.726 C 153.517 148.989 153.495 148.27 153.509 147.57 C 153.522 146.87 153.572 146.189 153.66 145.526 C 153.243 146.016 152.894 146.342 152.614 146.501 C 152.332 146.662 151.961 146.742 151.498 146.742 C 150.363 146.742 149.163 146.722 147.898 146.686 C 146.633 146.649 145.505 146.619 144.516 146.594 C 144.365 147.036 144.22 147.485 144.078 147.938 C 143.936 148.394 143.813 148.842 143.71 149.284 C 143.618 149.678 143.542 150.07 143.485 150.463 C 143.427 150.857 143.367 151.237 143.303 151.606 C 143.211 152.294 142.826 152.847 142.15 153.264 C 141.472 153.681 140.705 153.89 139.848 153.89 C 139.108 153.89 138.818 153.547 138.979 152.859 C 139.078 152.442 139.329 151.815 139.733 150.979 C 139.982 150.415 140.189 149.928 140.353 149.523 C 140.518 149.118 140.629 148.793 140.687 148.547 C 140.849 147.859 140.762 147.393 140.426 147.147 C 140.148 146.951 140.047 146.693 140.122 146.373 C 140.191 146.078 140.338 145.722 140.563 145.304 C 140.789 144.887 141.048 144.5 141.34 144.143 C 141.632 143.788 141.888 143.536 142.108 143.388 C 142.294 143.29 142.511 143.204 142.759 143.13 C 143.008 143.057 143.309 143.008 143.662 142.983 C 145.212 140.231 146.784 137.855 148.377 135.852 C 149.971 133.85 151.534 132.302 153.064 131.209 C 154.594 130.117 156.019 129.57 157.34 129.57 C 158.15 129.57 158.673 129.859 158.908 130.435 C 159.142 131.013 159.101 131.977 158.783 133.328 L 158.394 134.987 C 157.811 137.467 157.448 139.752 157.304 141.841 C 157.161 143.929 157.19 145.624 157.395 146.926 C 157.581 148.301 158.021 149.432 158.716 150.316 C 158.937 150.562 159.071 150.776 159.121 150.96 C 159.169 151.144 159.172 151.336 159.125 151.532 C 159.039 151.901 158.819 152.269 158.465 152.638 C 158.113 153.006 157.699 153.313 157.224 153.559 C 156.75 153.805 156.293 153.927 155.852 153.927 Z M 146.458 142.762 C 147.605 142.713 148.611 142.669 149.476 142.632 C 150.342 142.595 151.064 142.578 151.643 142.578 L 154.074 142.578 C 154.19 141.889 154.319 141.166 154.464 140.403 C 154.608 139.641 154.778 138.844 154.975 138.008 L 155.477 135.871 C 155.645 135.159 155.68 134.686 155.584 134.452 C 155.489 134.219 155.232 134.102 154.816 134.102 C 153.681 134.102 152.362 134.888 150.857 136.461 C 149.353 138.033 147.887 140.134 146.458 142.762 Z M 166.267 153.964 C 164.344 153.964 163.08 153.479 162.475 152.508 C 161.87 151.538 161.754 150.254 162.13 148.658 C 162.228 148.241 162.381 147.737 162.589 147.147 C 162.796 146.557 163.056 145.845 163.369 145.01 C 163.838 143.805 164.228 142.731 164.544 141.785 C 164.859 140.84 165.149 139.802 165.415 138.672 C 165.721 137.37 165.934 136.313 166.056 135.502 C 165.604 135.749 165.286 135.871 165.101 135.871 C 164.729 135.871 164.649 135.429 164.856 134.544 C 165.018 133.856 165.299 133.272 165.701 132.793 C 166.103 132.314 166.689 131.866 167.459 131.449 C 168.235 131.007 169.175 130.627 170.281 130.307 C 171.387 129.987 172.529 129.828 173.71 129.828 C 175.633 129.828 176.982 130.295 177.759 131.228 C 178.534 132.161 178.744 133.39 178.385 134.913 C 178.155 135.896 177.745 136.804 177.154 137.64 C 176.564 138.475 175.836 139.212 174.967 139.851 C 177.747 140.342 178.778 142.11 178.063 145.157 C 177.676 146.804 176.883 148.301 175.686 149.653 C 174.488 151.004 173.047 152.06 171.363 152.822 C 169.726 153.584 168.027 153.964 166.267 153.964 Z M 168.617 149.874 C 169.66 149.874 170.639 149.721 171.556 149.412 C 172.474 149.106 173.256 148.658 173.905 148.068 C 174.553 147.479 174.969 146.79 175.154 146.005 C 175.391 144.998 175.222 144.284 174.648 143.867 C 174.075 143.45 173.349 143.241 172.469 143.241 C 172.098 143.241 171.627 143.278 171.053 143.351 C 170.81 143.4 170.538 143.425 170.237 143.425 C 169.728 143.425 169.357 143.204 169.125 142.762 C 168.893 142.32 168.856 141.767 169.011 141.104 C 169.12 140.636 169.387 140.342 169.81 140.219 C 172.819 139.434 174.553 138.07 175.008 136.129 C 175.373 134.581 174.547 133.807 172.533 133.807 C 171.791 133.807 170.845 133.943 169.693 134.213 C 169.41 135.417 169.056 136.676 168.631 137.989 C 168.206 139.304 167.711 140.673 167.145 142.099 C 166.774 143.082 166.47 143.91 166.23 144.585 C 165.991 145.262 165.822 145.809 165.723 146.226 C 165.412 147.552 165.504 148.491 165.999 149.044 C 166.494 149.597 167.367 149.874 168.617 149.874 Z M 181.602 153.89 C 181.047 153.89 180.633 153.731 180.361 153.411 C 180.089 153.092 180.068 152.442 180.299 151.458 C 180.415 150.968 180.611 150.328 180.888 149.542 C 181.165 148.757 181.442 147.969 181.721 147.184 C 182.385 145.44 182.925 143.929 183.341 142.651 C 183.758 141.373 184.121 140.072 184.433 138.745 C 184.722 137.517 184.926 136.375 185.048 135.318 C 185.168 134.261 185.064 133.353 184.733 132.591 C 184.623 132.271 184.588 132.027 184.629 131.854 C 184.698 131.56 184.927 131.246 185.318 130.914 C 185.709 130.582 186.156 130.307 186.659 130.086 C 187.163 129.864 187.612 129.754 188.005 129.754 C 188.722 129.754 189.124 130.091 189.208 130.767 C 189.293 131.443 189.216 132.285 188.98 133.291 C 188.836 133.906 188.621 134.667 188.339 135.576 C 188.056 136.486 187.774 137.363 187.494 138.21 C 187.213 139.058 186.984 139.715 186.804 140.182 C 186.337 141.484 185.923 142.7 185.566 143.83 C 185.207 144.961 184.935 145.919 184.75 146.705 C 184.531 147.638 184.433 148.425 184.457 149.063 C 184.48 149.701 184.663 150.231 185.005 150.648 C 185.236 150.942 185.309 151.274 185.223 151.643 C 185.084 152.232 184.678 152.754 184.004 153.208 C 183.33 153.663 182.529 153.89 181.602 153.89 Z M 190.325 153.89 C 190.047 153.89 189.775 153.842 189.508 153.743 C 189.241 153.644 189.06 153.411 188.961 153.043 C 188.862 152.674 188.902 152.11 189.081 151.348 C 189.197 150.857 189.386 150.223 189.649 149.449 C 189.911 148.675 190.176 147.921 190.442 147.184 C 190.916 145.956 191.401 144.604 191.899 143.13 C 192.395 141.656 192.814 140.194 193.155 138.745 C 193.276 138.229 193.392 137.688 193.501 137.124 C 193.611 136.559 193.692 136.018 193.743 135.502 C 193.587 135.576 193.415 135.644 193.226 135.704 C 193.039 135.766 192.887 135.797 192.771 135.797 C 192.539 135.797 192.413 135.668 192.393 135.41 C 192.372 135.152 192.403 134.851 192.483 134.508 C 192.669 133.722 192.997 133.088 193.468 132.609 C 193.939 132.13 194.58 131.695 195.39 131.302 C 196.473 130.737 197.582 130.324 198.72 130.066 C 199.858 129.808 200.913 129.68 201.885 129.68 C 203.32 129.68 204.531 129.95 205.515 130.491 C 206.5 131.032 207.189 131.792 207.583 132.776 C 207.978 133.759 208.013 134.938 207.69 136.313 C 207.355 137.739 206.739 139.003 205.842 140.109 C 204.946 141.214 203.923 142.116 202.775 142.816 C 201.626 143.517 200.516 143.978 199.446 144.199 C 199.672 144.814 199.927 145.427 200.211 146.041 C 200.495 146.656 200.799 147.209 201.124 147.7 C 202.103 149.149 203.276 149.874 204.642 149.874 C 205.012 149.874 205.343 149.849 205.632 149.8 C 205.776 149.775 205.885 149.831 205.958 149.965 C 206.03 150.101 206.02 150.365 205.927 150.758 C 205.818 151.225 205.614 151.697 205.316 152.176 C 205.019 152.655 204.612 153.055 204.097 153.375 C 203.582 153.694 202.942 153.854 202.178 153.854 C 201.275 153.854 200.488 153.534 199.816 152.896 C 199.143 152.257 198.577 151.439 198.116 150.444 C 197.655 149.449 197.282 148.4 196.998 147.294 C 196.713 146.189 196.497 145.169 196.345 144.236 C 196.316 143.966 196.297 143.701 196.289 143.443 C 196.28 143.185 196.303 142.934 196.361 142.688 C 196.46 142.271 196.668 141.926 196.986 141.656 C 197.218 141.46 197.509 141.325 197.863 141.251 C 198.216 141.177 198.717 141.14 199.365 141.14 C 200.592 141.14 201.672 140.784 202.604 140.072 C 203.535 139.36 204.134 138.439 204.399 137.308 C 204.688 136.08 204.465 135.183 203.729 134.618 C 202.993 134.054 202.001 133.771 200.75 133.771 C 199.731 133.771 198.626 133.943 197.433 134.286 C 196.988 135.883 196.395 137.713 195.656 139.777 C 195.228 141.005 194.822 142.221 194.434 143.425 C 194.047 144.629 193.738 145.722 193.507 146.705 C 193.304 147.564 193.202 148.32 193.2 148.97 C 193.198 149.622 193.374 150.18 193.727 150.648 C 193.97 150.991 194.046 151.36 193.953 151.753 C 193.826 152.294 193.421 152.785 192.738 153.227 C 192.055 153.669 191.251 153.89 190.325 153.89 Z" style="fill: rgb(254, 209, 54); text-transform: capitalize; white-space: pre;"/>
  <path d="M 104.508 154.501 C 103.293 154.501 102.18 154.204 101.327 153.644 C 100.464 153.078 99.818 152.179 99.507 151.117 C 99.197 150.06 99.231 148.733 99.593 147.28 C 99.918 145.976 100.465 144.684 101.202 143.478 C 101.938 142.273 102.85 141.161 103.894 140.196 C 104.942 139.227 106.148 138.435 107.44 137.868 C 108.741 137.298 110.154 137.001 111.572 137.001 C 112.62 137.001 113.538 137.184 114.19 137.536 C 114.545 137.727 114.864 138.039 115.01 138.353 C 115.157 138.669 115.184 139.116 115.089 139.497 C 115 139.853 114.798 140.245 114.537 140.574 C 114.282 140.896 113.959 141.195 113.626 141.417 C 113.275 141.651 112.849 141.801 112.499 141.801 C 112.252 141.801 111.948 141.668 111.768 141.52 L 111.594 141.378 L 111.816 141.565 C 111.176 141.025 110.422 140.801 109.398 140.801 C 108.294 140.801 107.373 141.038 106.497 141.546 C 105.607 142.061 104.906 142.701 104.308 143.541 C 103.706 144.387 103.303 145.259 103.056 146.247 C 102.691 147.714 102.794 148.721 103.37 149.538 C 103.941 150.348 104.764 150.701 106.131 150.701 C 106.727 150.701 107.267 150.62 107.827 150.448 C 108.381 150.278 108.813 150.055 109.211 149.736 C 109.589 149.434 109.777 149.149 109.882 148.73 C 109.983 148.321 109.971 148.194 109.827 148.03 C 109.648 147.825 109.434 147.704 109.042 147.595 C 108.617 147.478 108.151 147.405 107.617 147.374 C 107.203 147.338 106.85 147.277 106.631 147.193 C 106.429 147.116 106.204 146.848 106.156 146.638 C 106.117 146.467 106.134 146.214 106.186 146.005 C 106.304 145.53 106.598 145.06 106.973 144.744 C 107.345 144.431 107.832 144.231 108.284 144.178 C 108.805 144.128 109.43 144.089 110.143 144.064 C 110.852 144.039 111.592 144.022 112.355 144.014 C 113.117 144.005 113.833 144.001 114.501 144.001 C 114.776 144.001 115.098 144.08 115.277 144.216 C 115.411 144.319 115.537 144.56 115.558 144.721 C 115.575 144.854 115.556 145.045 115.518 145.197 C 115.437 145.524 115.265 145.904 115.039 146.266 C 114.811 146.63 114.519 146.973 114.214 147.232 C 113.917 147.484 113.528 147.645 113.177 147.69 L 113.152 147.176 C 113.16 147.33 113.161 147.507 113.154 147.693 C 113.12 147.697 113.086 147.699 113.053 147.701 L 113.154 147.701 C 113.152 147.73 113.151 147.759 113.15 147.788 C 113.138 148.024 113.092 148.31 113.02 148.597 C 112.824 149.383 112.428 150.174 111.884 150.871 C 111.346 151.56 110.66 152.2 109.885 152.737 C 109.111 153.273 108.239 153.713 107.332 154.024 C 106.419 154.337 105.449 154.501 104.508 154.501 Z M 107.008 153.078 C 107.85 152.789 108.599 152.412 109.315 151.915 C 110.031 151.419 110.606 150.883 111.096 150.256 C 111.579 149.636 111.88 149.035 112.05 148.355 C 112.111 148.109 112.142 147.92 112.151 147.739 C 112.161 147.542 112.162 147.379 112.154 147.226 L 112.126 146.701 L 113.053 146.701 C 113.24 146.72 113.35 146.654 113.567 146.47 C 113.811 146.262 114.002 146.038 114.191 145.736 C 114.369 145.451 114.474 145.225 114.536 145.001 C 114.525 145.001 114.514 145.001 114.501 145.001 C 113.836 145.001 113.125 145.005 112.366 145.013 C 111.609 145.022 110.881 145.038 110.178 145.063 C 109.479 145.088 108.885 145.124 108.381 145.174 C 108.084 145.187 107.879 145.288 107.618 145.508 C 107.36 145.726 107.237 145.922 107.156 146.247 C 107.151 146.269 107.146 146.288 107.142 146.304 C 107.271 146.333 107.448 146.357 107.695 146.377 C 108.275 146.413 108.829 146.499 109.308 146.632 C 109.82 146.773 110.292 147.044 110.58 147.372 C 110.903 147.741 110.999 148.381 110.852 148.972 C 110.707 149.553 110.333 150.118 109.836 150.516 C 109.361 150.897 108.759 151.208 108.121 151.404 C 107.49 151.598 106.801 151.701 106.131 151.701 C 104.565 151.701 103.274 151.137 102.553 150.114 C 101.836 149.098 101.679 147.638 102.086 146.005 C 102.355 144.926 102.838 143.882 103.493 142.961 C 104.152 142.035 105.014 141.249 105.995 140.681 C 106.989 140.105 108.169 139.801 109.398 139.801 C 110.575 139.801 111.643 140.16 112.445 140.787 L 112.467 140.805 C 112.474 140.802 112.485 140.801 112.499 140.801 C 112.683 140.801 112.823 140.751 113.072 140.585 C 113.338 140.407 113.546 140.215 113.753 139.953 C 113.955 139.699 114.058 139.499 114.119 139.255 C 114.178 139.019 114.173 138.924 114.103 138.774 C 114.032 138.622 113.949 138.542 113.716 138.416 C 113.193 138.134 112.523 138.001 111.572 138.001 C 110.256 138.001 109.049 138.255 107.842 138.784 C 106.626 139.317 105.56 140.017 104.573 140.931 C 103.58 141.849 102.756 142.854 102.056 143.999 C 101.357 145.143 100.87 146.293 100.563 147.522 C 100.227 148.869 100.2 149.925 100.467 150.835 C 100.732 151.739 101.162 152.341 101.875 152.808 C 102.597 153.281 103.422 153.501 104.508 153.501 C 105.366 153.501 106.171 153.365 107.008 153.078 Z M 116.146 154.426 C 115.904 154.426 115.625 154.378 115.394 154.298 C 115.08 154.189 114.782 153.835 114.683 153.488 C 114.589 153.155 114.627 152.638 114.766 152.08 C 114.853 151.731 114.997 151.278 115.189 150.744 C 115.379 150.217 115.575 149.689 115.768 149.187 C 116.107 148.359 116.452 147.453 116.808 146.458 C 117.161 145.469 117.456 144.501 117.698 143.53 C 117.784 143.185 117.864 142.829 117.942 142.45 C 117.964 142.347 117.983 142.245 118.001 142.146 C 117.968 142.149 117.936 142.151 117.906 142.151 C 117.743 142.151 117.488 142.063 117.366 141.945 C 117.247 141.83 117.15 141.591 117.136 141.43 C 117.118 141.208 117.148 140.922 117.214 140.655 C 117.363 140.06 117.669 139.504 118.062 139.127 C 118.436 138.769 118.966 138.432 119.577 138.15 C 120.384 137.754 121.234 137.456 122.084 137.275 C 122.926 137.095 123.738 137.001 124.466 137.001 C 125.551 137.001 126.541 137.21 127.309 137.607 C 128.089 138.011 128.709 138.657 129.028 139.405 C 129.347 140.155 129.379 141.122 129.129 142.122 C 128.874 143.144 128.377 144.108 127.694 144.902 C 127.021 145.683 126.22 146.351 125.356 146.847 C 124.497 147.34 124.034 147.51 123.393 147.697 C 123.492 147.924 123.51 147.973 123.71 148.381 C 123.906 148.781 124.102 149.119 124.325 149.435 C 124.952 150.348 125.593 150.701 126.45 150.701 C 126.7 150.701 126.897 150.687 127.084 150.657 C 127.202 150.638 127.403 150.662 127.516 150.716 C 127.629 150.77 127.773 150.912 127.832 151.016 C 127.949 151.223 127.94 151.606 127.861 151.922 C 127.771 152.283 127.589 152.682 127.353 153.039 C 127.106 153.414 126.728 153.764 126.311 154.008 C 125.877 154.261 125.284 154.401 124.677 154.401 C 123.938 154.401 123.193 154.116 122.643 153.623 C 122.121 153.156 121.656 152.524 121.305 151.809 C 120.963 151.112 120.678 150.355 120.467 149.583 C 120.259 148.822 120.094 148.079 119.982 147.433 C 119.96 147.24 119.945 147.042 119.938 146.857 C 119.931 146.647 119.956 146.406 120.006 146.205 C 120.096 145.844 120.337 145.469 120.628 145.236 C 120.845 145.062 121.168 144.921 121.475 144.86 C 121.76 144.804 122.169 144.776 122.653 144.776 C 123.462 144.776 124.085 144.582 124.691 144.145 C 125.293 143.711 125.621 143.236 125.791 142.555 C 125.882 142.189 125.89 141.957 125.828 141.723 C 125.769 141.501 125.698 141.399 125.5 141.256 C 125.043 140.925 124.485 140.776 123.649 140.776 C 122.952 140.776 122.38 140.86 121.66 141.039 C 121.337 142.132 120.986 143.12 120.451 144.526 C 120.145 145.356 119.854 146.174 119.577 146.987 C 119.301 147.795 119.085 148.517 118.922 149.172 C 118.782 149.731 118.717 150.183 118.716 150.591 C 118.714 150.952 118.782 151.187 118.994 151.426 C 119.214 151.756 119.336 152.223 119.243 152.597 C 119.124 153.074 118.699 153.564 118.144 153.903 C 117.59 154.241 116.875 154.426 116.146 154.426 Z M 117.623 153.049 C 118.05 152.788 118.209 152.611 118.272 152.355 C 118.312 152.196 118.327 152.164 118.196 152.028 C 117.904 151.635 117.713 151.108 117.716 150.586 C 117.718 150.11 117.8 149.538 117.951 148.93 C 118.12 148.252 118.349 147.49 118.63 146.665 C 118.91 145.845 119.205 145.014 119.514 144.178 C 120.044 142.785 120.466 141.557 120.782 140.484 L 120.862 140.216 L 121.131 140.144 C 122.018 139.904 122.88 139.776 123.649 139.776 C 124.614 139.776 125.485 140.01 126.087 140.446 C 126.418 140.686 126.692 141.08 126.794 141.467 C 126.893 141.84 126.878 142.329 126.761 142.797 C 126.549 143.649 126.014 144.424 125.276 144.957 C 124.541 145.486 123.61 145.776 122.653 145.776 C 122.203 145.776 121.891 145.798 121.668 145.842 C 121.467 145.881 121.368 145.924 121.253 146.016 C 121.086 146.15 121.027 146.241 120.976 146.447 C 120.943 146.579 120.933 146.68 120.938 146.82 C 120.944 146.985 120.955 147.137 120.974 147.305 C 121.08 147.922 121.23 148.58 121.432 149.319 C 121.63 150.047 121.881 150.715 122.202 151.368 C 122.515 152.003 122.865 152.479 123.31 152.879 C 123.727 153.252 124.116 153.401 124.677 153.401 C 125.17 153.401 125.499 153.324 125.806 153.144 C 126.13 152.955 126.337 152.763 126.518 152.488 C 126.71 152.197 126.821 151.955 126.889 151.685 C 126.749 151.696 126.601 151.701 126.45 151.701 C 125.341 151.701 124.294 151.071 123.512 150.017 C 123.267 149.667 123.025 149.254 122.812 148.821 C 122.603 148.395 122.411 147.959 122.245 147.533 L 122.025 146.972 L 122.615 146.86 C 123.342 146.723 124.063 146.436 124.857 145.98 C 125.647 145.526 126.317 144.968 126.936 144.25 C 127.543 143.544 127.932 142.791 128.159 141.88 C 128.375 141.013 128.356 140.38 128.107 139.797 C 127.858 139.212 127.486 138.825 126.849 138.495 C 126.2 138.159 125.448 138.001 124.466 138.001 C 123.795 138.001 123.088 138.082 122.293 138.252 C 121.505 138.421 120.764 138.678 120.013 139.05 C 119.461 139.299 119.059 139.558 118.754 139.85 C 118.469 140.123 118.302 140.426 118.185 140.897 C 118.166 140.972 118.153 141.036 118.144 141.093 C 118.24 141.062 118.321 141.031 118.403 140.994 L 119.197 140.637 L 119.103 141.504 C 119.065 141.867 119.003 142.257 118.922 142.652 C 118.842 143.04 118.756 143.417 118.668 143.772 C 118.42 144.768 118.111 145.783 117.749 146.794 C 117.39 147.799 117.038 148.722 116.695 149.56 C 116.506 150.056 116.318 150.56 116.13 151.083 C 115.944 151.599 115.815 152.004 115.736 152.322 C 115.618 152.798 115.598 153.047 115.645 153.214 C 115.689 153.367 115.653 153.329 115.723 153.354 C 115.875 153.407 115.988 153.426 116.146 153.426 C 116.75 153.426 117.193 153.311 117.623 153.049 Z M 140.14 154.451 C 139.498 154.451 138.867 154.086 138.557 153.533 C 138.273 153.029 138.088 152.193 138.002 151.143 C 137.961 150.644 137.943 150.145 137.952 149.668 L 138.933 148.585 C 138.612 148.939 138.297 149.219 138.045 149.354 C 138.018 149.369 137.989 149.382 137.96 149.396 C 137.976 148.984 138.012 148.574 138.066 148.183 L 137.896 149.423 C 137.644 149.522 137.322 149.576 137.005 149.576 C 136.185 149.576 135.315 149.563 134.401 149.538 C 133.491 149.513 132.952 149.5 132.331 149.484 C 132.266 149.67 132.241 149.74 132.14 150.045 C 132.041 150.345 131.958 150.631 131.886 150.922 C 131.822 151.178 131.772 151.422 131.732 151.678 C 131.69 151.948 131.649 152.193 131.603 152.446 C 131.49 153.026 131.102 153.6 130.529 153.933 C 129.982 154.251 129.3 154.426 128.621 154.426 C 128.28 154.426 127.881 154.296 127.692 154.084 C 127.494 153.862 127.43 153.427 127.511 153.105 C 127.591 152.783 127.793 152.31 128.089 151.731 C 128.265 151.354 128.409 151.037 128.526 150.766 C 128.638 150.504 128.705 150.322 128.74 150.18 C 128.787 149.989 128.793 149.905 128.775 149.811 C 128.768 149.777 128.774 149.767 128.777 149.764 C 128.775 149.765 128.768 149.766 128.754 149.763 C 128.605 149.654 128.438 149.474 128.371 149.312 C 128.301 149.146 128.288 148.883 128.333 148.705 C 128.393 148.464 128.527 148.159 128.702 147.852 C 128.877 147.548 129.091 147.246 129.318 146.985 C 129.545 146.723 129.829 146.482 130.024 146.354 C 130.182 146.277 130.382 146.2 130.582 146.144 C 130.79 146.086 130.889 146.074 131.068 146.052 C 132.193 144.17 133.216 142.741 134.378 141.366 C 135.544 139.985 136.719 138.887 137.854 138.124 C 139.006 137.348 140.175 136.926 141.21 136.926 C 141.552 136.926 141.912 137 142.161 137.129 C 142.423 137.266 142.68 137.543 142.798 137.815 C 143.01 138.307 142.97 139.131 142.734 140.097 L 142.454 141.222 C 142.038 142.886 141.785 144.394 141.683 145.787 C 141.582 147.181 141.601 148.283 141.744 149.13 C 141.862 150.003 142.12 150.637 142.576 151.17 C 142.756 151.368 142.916 151.603 142.973 151.802 C 143.026 151.991 143.029 152.253 142.98 152.447 C 142.899 152.773 142.666 153.142 142.371 153.432 C 142.088 153.711 141.723 153.967 141.347 154.15 C 140.959 154.339 140.518 154.451 140.14 154.451 Z M 140.908 153.252 C 141.215 153.102 141.446 152.941 141.67 152.72 C 141.883 152.51 141.967 152.379 142.01 152.205 C 142.028 152.132 142.028 152.136 142.011 152.075 C 141.996 152.023 141.97 151.978 141.838 151.846 C 141.299 151.181 140.907 150.27 140.756 149.28 C 140.606 148.361 140.581 147.154 140.686 145.715 C 140.791 144.275 141.06 142.682 141.484 140.98 L 141.764 139.855 C 141.986 138.987 142.005 138.503 141.88 138.212 C 141.828 138.092 141.812 138.075 141.699 138.016 C 141.572 137.95 141.452 137.926 141.21 137.926 C 140.345 137.926 139.463 138.246 138.412 138.953 C 137.343 139.673 136.27 140.675 135.142 142.011 C 134.009 143.352 132.901 144.931 131.795 146.782 L 131.66 147.009 L 131.399 147.025 C 131.166 147.039 131.001 147.066 130.851 147.108 C 130.692 147.152 130.594 147.187 130.492 147.238 C 130.377 147.312 130.265 147.42 130.072 147.642 C 129.878 147.865 129.72 148.087 129.57 148.35 C 129.426 148.601 129.348 148.776 129.307 148.932 C 129.309 148.933 129.311 148.934 129.314 148.935 C 129.505 149.091 129.707 149.37 129.756 149.616 C 129.8 149.839 129.779 150.146 129.71 150.422 C 129.662 150.614 129.568 150.873 129.444 151.161 C 129.324 151.44 129.172 151.776 128.992 152.162 C 128.708 152.713 128.542 153.102 128.481 153.347 C 128.468 153.399 128.457 153.421 128.449 153.429 C 128.46 153.432 128.487 153.426 128.621 153.426 C 129.176 153.426 129.597 153.318 130.026 153.069 C 130.427 152.835 130.593 152.659 130.613 152.306 C 130.658 152.059 130.703 151.788 130.744 151.524 C 130.788 151.246 130.846 150.958 130.915 150.68 C 130.992 150.371 131.086 150.049 131.191 149.732 C 131.294 149.42 131.401 149.11 131.51 148.806 L 131.632 148.468 L 131.992 148.476 C 132.705 148.493 133.518 148.514 134.429 148.539 C 135.336 148.564 136.192 148.576 137.005 148.576 C 137.289 148.576 137.434 148.547 137.572 148.473 C 137.724 148.391 137.91 148.229 138.189 147.917 L 139.229 146.751 L 137.11 146.751 C 136.699 146.751 136.189 146.763 135.57 146.788 C 134.948 146.813 134.224 146.842 133.399 146.876 L 132.492 146.912 L 132.945 146.126 C 133.989 144.319 135.083 142.839 136.194 141.745 C 137.323 140.632 138.454 140.001 139.393 140.001 C 139.584 140.001 139.806 140.038 139.954 140.101 C 140.124 140.174 140.331 140.369 140.405 140.539 C 140.521 140.805 140.482 141.298 140.354 141.822 L 139.993 143.272 C 139.853 143.833 139.733 144.364 139.63 144.874 C 139.527 145.389 139.435 145.875 139.352 146.339 L 139.279 146.751 L 139.275 146.751 L 139.056 148.319 C 138.996 148.755 138.962 149.188 138.953 149.649 C 138.943 150.111 138.958 150.572 138.999 151.059 C 139.073 152.04 139.215 152.664 139.429 153.044 C 139.614 153.374 139.748 153.451 140.14 153.451 C 140.395 153.451 140.612 153.396 140.908 153.252 Z M 134.28 145.839 C 134.735 145.821 134.907 145.814 135.53 145.789 C 136.157 145.764 136.687 145.751 137.11 145.751 L 138.442 145.751 C 138.506 145.406 138.546 145.197 138.65 144.678 C 138.755 144.155 138.88 143.602 139.023 143.03 L 139.384 141.58 C 139.467 141.256 139.496 141.09 139.497 141.004 C 139.474 141.002 139.443 141.001 139.393 141.001 C 138.699 141.001 137.931 141.437 136.895 142.457 C 135.84 143.497 135.138 144.451 134.28 145.839 Z M 147.635 154.476 C 146.166 154.476 145.007 154.047 144.489 153.265 C 143.988 152.508 143.882 151.419 144.172 150.255 C 144.247 149.955 144.366 149.587 144.52 149.176 C 144.67 148.773 144.862 148.279 145.087 147.71 C 145.422 146.899 145.699 146.182 145.924 145.547 C 146.146 144.917 146.348 144.236 146.537 143.48 C 146.754 142.607 146.755 142.573 146.834 142.201 C 146.823 142.201 146.81 142.201 146.795 142.201 C 146.646 142.201 146.409 142.117 146.295 142.012 C 146.188 141.914 146.088 141.711 146.061 141.572 C 146.018 141.351 146.051 141.015 146.135 140.68 C 146.265 140.158 146.524 139.653 146.855 139.281 C 147.18 138.916 147.67 138.564 148.257 138.261 C 148.844 137.947 149.573 137.667 150.393 137.444 C 151.221 137.218 152.11 137.101 152.993 137.101 C 154.453 137.101 155.638 137.492 156.281 138.22 C 156.925 138.951 157.125 140.039 156.843 141.172 C 156.664 141.887 156.325 142.595 155.871 143.201 C 155.422 143.801 155.302 143.884 154.961 144.192 C 155.578 144.449 155.944 144.585 156.379 145.288 C 156.812 145.987 156.886 147.014 156.61 148.122 C 156.315 149.303 155.682 150.433 154.778 151.394 C 153.881 152.348 152.76 153.118 151.504 153.659 C 150.276 154.191 148.953 154.476 147.635 154.476 Z M 151.102 152.743 C 152.27 152.251 153.224 151.587 154.05 150.708 C 154.87 149.836 155.377 148.933 155.639 147.88 C 155.878 146.922 155.839 146.315 155.529 145.814 C 155.222 145.317 154.734 145.032 153.815 144.894 L 152.57 144.707 L 153.612 143.99 C 154.207 143.581 154.671 143.135 155.071 142.601 C 155.466 142.074 155.718 141.548 155.872 140.93 C 156.105 139.996 156.004 139.418 155.531 138.882 C 155.056 138.344 154.298 138.101 152.993 138.101 C 152.175 138.101 151.419 138.201 150.655 138.408 C 149.884 138.619 149.259 138.855 148.73 139.141 C 148.209 139.405 147.855 139.661 147.602 139.946 C 147.354 140.224 147.208 140.51 147.105 140.922 C 147.088 140.992 147.074 141.051 147.063 141.102 C 147.117 141.077 147.18 141.045 147.255 141.006 L 148.132 140.549 L 147.977 141.529 C 147.887 142.093 147.729 142.831 147.507 143.722 C 147.313 144.499 147.097 145.226 146.866 145.88 C 146.637 146.529 146.352 147.267 146.013 148.088 C 145.79 148.652 145.605 149.129 145.456 149.526 C 145.311 149.915 145.209 150.23 145.143 150.497 C 144.893 151.5 144.952 152.152 145.323 152.712 C 145.677 153.247 146.337 153.476 147.635 153.476 C 148.85 153.476 149.972 153.244 151.102 152.743 Z M 147.08 150.983 C 146.618 150.497 146.514 149.588 146.759 148.605 C 146.834 148.304 146.964 147.906 147.141 147.437 C 147.314 146.976 147.539 146.4 147.806 145.732 C 148.211 144.773 148.561 143.859 148.864 142.976 C 149.166 142.094 149.415 141.261 149.616 140.455 L 149.691 140.154 L 149.993 140.088 C 150.843 139.901 151.578 139.801 152.144 139.801 C 152.932 139.801 153.626 139.982 154.009 140.32 C 154.417 140.681 154.569 141.366 154.412 141.997 C 154.045 143.468 152.572 144.558 150.317 145.133 C 150.127 145.148 150.144 145.176 150.095 145.372 C 150.002 145.746 150.014 145.925 150.129 146.133 C 150.232 146.319 150.248 146.326 150.493 146.326 C 150.688 146.326 150.87 146.309 151.02 146.28 C 151.444 146.229 151.814 146.201 152.099 146.201 C 152.797 146.201 153.47 146.384 153.951 146.714 C 154.23 146.905 154.471 147.252 154.553 147.579 C 154.631 147.89 154.614 148.307 154.516 148.697 C 154.364 149.308 153.979 149.909 153.458 150.356 C 152.951 150.79 152.298 151.143 151.593 151.365 C 150.895 151.586 150.113 151.701 149.327 151.701 C 148.355 151.701 147.522 151.448 147.08 150.983 Z M 149.327 150.701 C 150.04 150.701 150.669 150.608 151.292 150.412 C 151.907 150.217 152.381 149.962 152.807 149.596 C 153.219 149.243 153.433 148.911 153.546 148.455 C 153.619 148.162 153.627 147.995 153.583 147.823 C 153.544 147.667 153.518 147.63 153.385 147.538 C 153.04 147.302 152.667 147.201 152.099 147.201 C 151.85 147.201 151.555 147.222 151.154 147.271 C 150.957 147.305 150.73 147.326 150.493 147.326 C 150.003 147.326 149.486 147.033 149.255 146.619 C 149.044 146.239 148.997 145.69 149.114 145.178 C 148.991 145.487 148.863 145.8 148.73 146.116 C 148.465 146.779 148.248 147.334 148.077 147.79 C 147.908 148.238 147.795 148.581 147.729 148.847 C 147.525 149.664 147.553 150.03 147.804 150.294 C 148.075 150.579 148.498 150.701 149.327 150.701 Z M 149.252 144.825 C 149.43 144.525 149.736 144.283 150.053 144.169 C 152.13 143.677 153.152 142.918 153.442 141.755 C 153.546 141.336 153.532 141.233 153.346 141.069 C 153.135 140.882 152.807 140.801 152.144 140.801 C 151.644 140.801 151.175 140.864 150.508 141 C 150.315 141.737 150.119 142.399 149.81 143.301 C 149.64 143.797 149.454 144.305 149.252 144.825 Z M 158.673 154.426 C 158.187 154.426 157.682 154.24 157.408 153.936 C 157.104 153.6 157.066 152.888 157.249 152.155 C 157.336 151.804 157.487 151.344 157.69 150.801 C 157.89 150.267 158.094 149.722 158.294 149.189 C 158.77 148.01 159.154 146.997 159.451 146.138 C 159.747 145.282 160.003 144.419 160.225 143.53 C 160.429 142.71 160.571 141.966 160.656 141.266 C 160.735 140.609 160.673 140.09 160.456 139.648 C 160.364 139.383 160.313 139.065 160.365 138.855 C 160.44 138.557 160.708 138.209 161.034 137.948 C 161.344 137.7 161.727 137.477 162.121 137.314 C 162.521 137.148 162.941 137.051 163.281 137.051 C 163.607 137.051 163.976 137.157 164.195 137.331 C 164.421 137.511 164.601 137.861 164.642 138.173 C 164.71 138.687 164.647 139.353 164.467 140.072 C 164.361 140.5 164.202 141.034 163.996 141.658 C 163.791 142.277 163.587 142.877 163.384 143.454 C 163.181 144.033 163.013 144.486 162.882 144.809 C 162.547 145.688 162.255 146.499 161.998 147.26 C 161.743 148.019 161.554 148.65 161.423 149.172 C 161.272 149.778 161.211 150.24 161.227 150.631 C 161.24 150.988 161.305 151.2 161.505 151.406 C 161.724 151.709 161.853 152.162 161.763 152.522 C 161.637 153.027 161.219 153.536 160.669 153.885 C 160.12 154.234 159.404 154.426 158.673 154.426 Z M 160.132 153.041 C 160.552 152.775 160.719 152.575 160.793 152.28 C 160.828 152.14 160.853 152.143 160.738 152.047 C 160.449 151.686 160.247 151.181 160.227 150.671 C 160.209 150.195 160.288 149.591 160.453 148.93 C 160.589 148.385 160.79 147.716 161.051 146.942 C 161.31 146.17 161.611 145.335 161.949 144.448 C 162.075 144.139 162.241 143.694 162.441 143.123 C 162.642 142.55 162.843 141.959 163.046 141.344 C 163.247 140.735 163.396 140.236 163.497 139.83 C 163.658 139.183 163.704 138.707 163.651 138.304 C 163.632 138.157 163.637 138.164 163.574 138.114 C 163.505 138.06 163.47 138.051 163.281 138.051 C 163.054 138.051 162.828 138.104 162.503 138.238 C 162.172 138.375 161.912 138.527 161.659 138.729 C 161.423 138.918 161.361 138.995 161.335 139.097 C 161.33 139.121 161.318 139.111 161.385 139.279 C 161.64 139.868 161.742 140.61 161.648 141.386 C 161.559 142.12 161.406 142.925 161.195 143.772 C 160.968 144.683 160.7 145.587 160.397 146.464 C 160.095 147.338 159.702 148.372 159.223 149.557 C 159.024 150.089 158.826 150.618 158.627 151.151 C 158.431 151.675 158.298 152.081 158.219 152.397 C 158.07 152.997 158.062 153.169 158.15 153.266 C 158.267 153.396 158.358 153.426 158.673 153.426 C 159.275 153.426 159.711 153.31 160.132 153.041 Z M 164.95 154.426 C 164.708 154.426 164.429 154.378 164.198 154.298 C 163.884 154.189 163.586 153.835 163.487 153.488 C 163.393 153.155 163.431 152.638 163.57 152.08 C 163.657 151.731 163.801 151.278 163.993 150.744 C 164.183 150.217 164.379 149.689 164.572 149.187 C 164.911 148.359 165.256 147.453 165.612 146.458 C 165.965 145.469 166.26 144.501 166.502 143.53 C 166.588 143.185 166.668 142.829 166.746 142.45 C 166.768 142.347 166.787 142.245 166.805 142.146 C 166.772 142.149 166.74 142.151 166.71 142.151 C 166.547 142.151 166.292 142.063 166.17 141.945 C 166.051 141.83 165.954 141.591 165.94 141.43 C 165.922 141.208 165.952 140.922 166.018 140.655 C 166.167 140.06 166.473 139.504 166.866 139.127 C 167.24 138.769 167.77 138.432 168.381 138.15 C 169.186 137.756 170.038 137.456 170.888 137.275 C 171.73 137.095 172.542 137.001 173.27 137.001 C 174.355 137.001 175.345 137.21 176.113 137.607 C 176.893 138.011 177.513 138.657 177.832 139.405 C 178.151 140.155 178.183 141.122 177.933 142.122 C 177.678 143.144 177.181 144.108 176.498 144.902 C 175.825 145.683 175.024 146.351 174.16 146.847 C 173.301 147.34 172.838 147.51 172.197 147.697 C 172.296 147.924 172.314 147.973 172.514 148.381 C 172.71 148.781 172.906 149.119 173.129 149.435 C 173.756 150.348 174.397 150.701 175.254 150.701 C 175.504 150.701 175.701 150.687 175.888 150.657 C 176.006 150.638 176.207 150.662 176.32 150.716 C 176.433 150.77 176.577 150.912 176.636 151.016 C 176.753 151.223 176.744 151.606 176.665 151.922 C 176.575 152.283 176.393 152.682 176.157 153.039 C 175.91 153.414 175.532 153.764 175.115 154.008 C 174.681 154.261 174.088 154.401 173.481 154.401 C 172.742 154.401 171.997 154.116 171.447 153.623 C 170.925 153.156 170.46 152.524 170.109 151.809 C 169.767 151.112 169.482 150.355 169.271 149.583 C 169.063 148.822 168.898 148.079 168.786 147.433 C 168.764 147.24 168.749 147.042 168.742 146.857 C 168.735 146.647 168.76 146.406 168.81 146.205 C 168.9 145.844 169.141 145.469 169.432 145.236 C 169.649 145.062 169.972 144.921 170.279 144.86 C 170.564 144.804 170.973 144.776 171.457 144.776 C 172.266 144.776 172.889 144.582 173.495 144.145 C 174.097 143.711 174.425 143.236 174.595 142.555 C 174.686 142.189 174.694 141.957 174.632 141.723 C 174.573 141.501 174.502 141.399 174.304 141.256 C 173.847 140.925 173.289 140.776 172.453 140.776 C 171.756 140.776 171.184 140.86 170.464 141.039 C 170.141 142.132 169.79 143.12 169.255 144.526 C 168.949 145.356 168.658 146.174 168.381 146.987 C 168.105 147.795 167.889 148.517 167.726 149.172 C 167.586 149.731 167.521 150.183 167.52 150.591 C 167.518 150.952 167.586 151.187 167.798 151.426 C 168.018 151.756 168.14 152.223 168.047 152.597 C 167.928 153.074 167.503 153.564 166.948 153.903 C 166.394 154.241 165.679 154.426 164.95 154.426 Z M 166.427 153.049 C 166.854 152.788 167.013 152.611 167.076 152.355 C 167.116 152.196 167.131 152.164 167 152.028 C 166.708 151.635 166.517 151.108 166.52 150.586 C 166.522 150.11 166.604 149.538 166.755 148.93 C 166.924 148.252 167.153 147.49 167.434 146.665 C 167.714 145.845 168.009 145.014 168.318 144.178 C 168.848 142.785 169.27 141.557 169.587 140.484 L 169.666 140.216 L 169.935 140.144 C 170.822 139.904 171.684 139.776 172.453 139.776 C 173.418 139.776 174.289 140.01 174.891 140.446 C 175.222 140.686 175.496 141.08 175.598 141.467 C 175.697 141.84 175.682 142.329 175.565 142.797 C 175.353 143.649 174.818 144.424 174.08 144.957 C 173.345 145.486 172.414 145.776 171.457 145.776 C 171.007 145.776 170.695 145.798 170.472 145.842 C 170.271 145.881 170.172 145.924 170.057 146.016 C 169.89 146.15 169.831 146.241 169.78 146.447 C 169.747 146.579 169.737 146.68 169.742 146.82 C 169.748 146.985 169.759 147.137 169.778 147.305 C 169.884 147.922 170.034 148.58 170.236 149.319 C 170.434 150.047 170.685 150.715 171.006 151.368 C 171.319 152.003 171.669 152.479 172.114 152.879 C 172.531 153.252 172.92 153.401 173.481 153.401 C 173.974 153.401 174.303 153.324 174.61 153.144 C 174.934 152.955 175.141 152.763 175.322 152.488 C 175.514 152.197 175.625 151.955 175.693 151.685 C 175.553 151.696 175.405 151.701 175.254 151.701 C 174.145 151.701 173.098 151.071 172.316 150.017 C 172.071 149.667 171.829 149.254 171.616 148.821 C 171.407 148.395 171.215 147.959 171.049 147.533 L 170.829 146.972 L 171.419 146.86 C 172.146 146.723 172.867 146.436 173.661 145.98 C 174.451 145.526 175.121 144.968 175.74 144.25 C 176.347 143.544 176.736 142.791 176.963 141.88 C 177.179 141.013 177.16 140.38 176.912 139.797 C 176.662 139.212 176.29 138.825 175.653 138.495 C 175.004 138.159 174.252 138.001 173.27 138.001 C 172.599 138.001 171.892 138.082 171.097 138.252 C 170.309 138.421 169.568 138.678 168.817 139.05 C 168.265 139.299 167.863 139.558 167.558 139.85 C 167.273 140.123 167.106 140.426 166.989 140.897 C 166.97 140.972 166.957 141.036 166.948 141.093 C 167.044 141.062 167.125 141.031 167.207 140.994 L 168.001 140.637 L 167.908 141.504 C 167.869 141.867 167.807 142.257 167.726 142.652 C 167.646 143.04 167.561 143.417 167.472 143.772 C 167.224 144.768 166.915 145.783 166.553 146.794 C 166.194 147.799 165.842 148.722 165.499 149.56 C 165.31 150.056 165.122 150.56 164.934 151.083 C 164.748 151.599 164.619 152.004 164.54 152.322 C 164.422 152.798 164.402 153.047 164.449 153.214 C 164.493 153.367 164.457 153.329 164.527 153.354 C 164.679 153.407 164.792 153.426 164.95 153.426 C 165.554 153.426 165.997 153.311 166.427 153.049 Z" style="fill: none;"/>
  <path d="M 104.508 154.501 C 103.293 154.501 102.18 154.204 101.327 153.644 C 100.464 153.078 99.818 152.179 99.507 151.117 C 99.197 150.06 99.231 148.733 99.593 147.28 C 99.918 145.976 100.465 144.684 101.202 143.478 C 101.938 142.273 102.85 141.161 103.894 140.196 C 104.942 139.227 106.148 138.435 107.44 137.868 C 108.741 137.298 110.154 137.001 111.572 137.001 C 112.62 137.001 113.538 137.184 114.19 137.536 C 114.545 137.727 114.864 138.039 115.01 138.353 C 115.157 138.669 115.184 139.116 115.089 139.497 C 115 139.853 114.798 140.245 114.537 140.574 C 114.282 140.896 113.959 141.195 113.626 141.417 C 113.275 141.651 112.849 141.801 112.499 141.801 C 112.252 141.801 111.948 141.668 111.768 141.52 L 111.594 141.378 L 111.816 141.565 C 111.176 141.025 110.422 140.801 109.398 140.801 C 108.294 140.801 107.373 141.038 106.497 141.546 C 105.607 142.061 104.906 142.701 104.308 143.541 C 103.706 144.387 103.303 145.259 103.056 146.247 C 102.691 147.714 102.794 148.721 103.37 149.538 C 103.941 150.348 104.764 150.701 106.131 150.701 C 106.727 150.701 107.267 150.62 107.827 150.448 C 108.381 150.278 108.813 150.055 109.211 149.736 C 109.589 149.434 109.777 149.149 109.882 148.73 C 109.983 148.321 109.971 148.194 109.827 148.03 C 109.648 147.825 109.434 147.704 109.042 147.595 C 108.617 147.478 108.151 147.405 107.617 147.374 C 107.203 147.338 106.85 147.277 106.631 147.193 C 106.429 147.116 106.204 146.848 106.156 146.638 C 106.117 146.467 106.134 146.214 106.186 146.005 C 106.304 145.53 106.598 145.06 106.973 144.744 C 107.345 144.431 107.832 144.231 108.284 144.178 C 108.805 144.128 109.43 144.089 110.143 144.064 C 110.852 144.039 111.592 144.022 112.355 144.014 C 113.117 144.005 113.833 144.001 114.501 144.001 C 114.776 144.001 115.098 144.08 115.277 144.216 C 115.411 144.319 115.537 144.56 115.558 144.721 C 115.575 144.854 115.556 145.045 115.518 145.197 C 115.437 145.524 115.265 145.904 115.039 146.266 C 114.811 146.63 114.519 146.973 114.214 147.232 C 113.917 147.484 113.528 147.645 113.177 147.69 L 113.152 147.176 C 113.16 147.33 113.161 147.507 113.154 147.693 C 113.12 147.697 113.086 147.699 113.053 147.701 L 113.154 147.701 C 113.152 147.73 113.151 147.759 113.15 147.788 C 113.138 148.024 113.092 148.31 113.02 148.597 C 112.824 149.383 112.428 150.174 111.884 150.871 C 111.346 151.56 110.66 152.2 109.885 152.737 C 109.111 153.273 108.239 153.713 107.332 154.024 C 106.419 154.337 105.449 154.501 104.508 154.501 Z M 107.008 153.078 C 107.85 152.789 108.599 152.412 109.315 151.915 C 110.031 151.419 110.606 150.883 111.096 150.256 C 111.579 149.636 111.88 149.035 112.05 148.355 C 112.111 148.109 112.142 147.92 112.151 147.739 C 112.161 147.542 112.162 147.379 112.154 147.226 L 112.126 146.701 L 113.053 146.701 C 113.24 146.72 113.35 146.654 113.567 146.47 C 113.811 146.262 114.002 146.038 114.191 145.736 C 114.369 145.451 114.474 145.225 114.536 145.001 C 114.525 145.001 114.514 145.001 114.501 145.001 C 113.836 145.001 113.125 145.005 112.366 145.013 C 111.609 145.022 110.881 145.038 110.178 145.063 C 109.479 145.088 108.885 145.124 108.381 145.174 C 108.084 145.187 107.879 145.288 107.618 145.508 C 107.36 145.726 107.237 145.922 107.156 146.247 C 107.151 146.269 107.146 146.288 107.142 146.304 C 107.271 146.333 107.448 146.357 107.695 146.377 C 108.275 146.413 108.829 146.499 109.308 146.632 C 109.82 146.773 110.292 147.044 110.58 147.372 C 110.903 147.741 110.999 148.381 110.852 148.972 C 110.707 149.553 110.333 150.118 109.836 150.516 C 109.361 150.897 108.759 151.208 108.121 151.404 C 107.49 151.598 106.801 151.701 106.131 151.701 C 104.565 151.701 103.274 151.137 102.553 150.114 C 101.836 149.098 101.679 147.638 102.086 146.005 C 102.355 144.926 102.838 143.882 103.493 142.961 C 104.152 142.035 105.014 141.249 105.995 140.681 C 106.989 140.105 108.169 139.801 109.398 139.801 C 110.575 139.801 111.643 140.16 112.445 140.787 L 112.467 140.805 C 112.474 140.802 112.485 140.801 112.499 140.801 C 112.683 140.801 112.823 140.751 113.072 140.585 C 113.338 140.407 113.546 140.215 113.753 139.953 C 113.955 139.699 114.058 139.499 114.119 139.255 C 114.178 139.019 114.173 138.924 114.103 138.774 C 114.032 138.622 113.949 138.542 113.716 138.416 C 113.193 138.134 112.523 138.001 111.572 138.001 C 110.256 138.001 109.049 138.255 107.842 138.784 C 106.626 139.317 105.56 140.017 104.573 140.931 C 103.58 141.849 102.756 142.854 102.056 143.999 C 101.357 145.143 100.87 146.293 100.563 147.522 C 100.227 148.869 100.2 149.925 100.467 150.835 C 100.732 151.739 101.162 152.341 101.875 152.808 C 102.597 153.281 103.422 153.501 104.508 153.501 C 105.366 153.501 106.171 153.365 107.008 153.078 Z M 116.146 154.426 C 115.904 154.426 115.625 154.378 115.394 154.298 C 115.08 154.189 114.782 153.835 114.683 153.488 C 114.589 153.155 114.627 152.638 114.766 152.08 C 114.853 151.731 114.997 151.278 115.189 150.744 C 115.379 150.217 115.575 149.689 115.768 149.187 C 116.107 148.359 116.452 147.453 116.808 146.458 C 117.161 145.469 117.456 144.501 117.698 143.53 C 117.784 143.185 117.864 142.829 117.942 142.45 C 117.964 142.347 117.983 142.245 118.001 142.146 C 117.968 142.149 117.936 142.151 117.906 142.151 C 117.743 142.151 117.488 142.063 117.366 141.945 C 117.247 141.83 117.15 141.591 117.136 141.43 C 117.118 141.208 117.148 140.922 117.214 140.655 C 117.363 140.06 117.669 139.504 118.062 139.127 C 118.436 138.769 118.966 138.432 119.577 138.15 C 120.384 137.754 121.234 137.456 122.084 137.275 C 122.926 137.095 123.738 137.001 124.466 137.001 C 125.551 137.001 126.541 137.21 127.309 137.607 C 128.089 138.011 128.709 138.657 129.028 139.405 C 129.347 140.155 129.379 141.122 129.129 142.122 C 128.874 143.144 128.377 144.108 127.694 144.902 C 127.021 145.683 126.22 146.351 125.356 146.847 C 124.497 147.34 124.034 147.51 123.393 147.697 C 123.492 147.924 123.51 147.973 123.71 148.381 C 123.906 148.781 124.102 149.119 124.325 149.435 C 124.952 150.348 125.593 150.701 126.45 150.701 C 126.7 150.701 126.897 150.687 127.084 150.657 C 127.202 150.638 127.403 150.662 127.516 150.716 C 127.629 150.77 127.773 150.912 127.832 151.016 C 127.949 151.223 127.94 151.606 127.861 151.922 C 127.771 152.283 127.589 152.682 127.353 153.039 C 127.106 153.414 126.728 153.764 126.311 154.008 C 125.877 154.261 125.284 154.401 124.677 154.401 C 123.938 154.401 123.193 154.116 122.643 153.623 C 122.121 153.156 121.656 152.524 121.305 151.809 C 120.963 151.112 120.678 150.355 120.467 149.583 C 120.259 148.822 120.094 148.079 119.982 147.433 C 119.96 147.24 119.945 147.042 119.938 146.857 C 119.931 146.647 119.956 146.406 120.006 146.205 C 120.096 145.844 120.337 145.469 120.628 145.236 C 120.845 145.062 121.168 144.921 121.475 144.86 C 121.76 144.804 122.169 144.776 122.653 144.776 C 123.462 144.776 124.085 144.582 124.691 144.145 C 125.293 143.711 125.621 143.236 125.791 142.555 C 125.882 142.189 125.89 141.957 125.828 141.723 C 125.769 141.501 125.698 141.399 125.5 141.256 C 125.043 140.925 124.485 140.776 123.649 140.776 C 122.952 140.776 122.38 140.86 121.66 141.039 C 121.337 142.132 120.986 143.12 120.451 144.526 C 120.145 145.356 119.854 146.174 119.577 146.987 C 119.301 147.795 119.085 148.517 118.922 149.172 C 118.782 149.731 118.717 150.183 118.716 150.591 C 118.714 150.952 118.782 151.187 118.994 151.426 C 119.214 151.756 119.336 152.223 119.243 152.597 C 119.124 153.074 118.699 153.564 118.144 153.903 C 117.59 154.241 116.875 154.426 116.146 154.426 Z M 117.623 153.049 C 118.05 152.788 118.209 152.611 118.272 152.355 C 118.312 152.196 118.327 152.164 118.196 152.028 C 117.904 151.635 117.713 151.108 117.716 150.586 C 117.718 150.11 117.8 149.538 117.951 148.93 C 118.12 148.252 118.349 147.49 118.63 146.665 C 118.91 145.845 119.205 145.014 119.514 144.178 C 120.044 142.785 120.466 141.557 120.782 140.484 L 120.862 140.216 L 121.131 140.144 C 122.018 139.904 122.88 139.776 123.649 139.776 C 124.614 139.776 125.485 140.01 126.087 140.446 C 126.418 140.686 126.692 141.08 126.794 141.467 C 126.893 141.84 126.878 142.329 126.761 142.797 C 126.549 143.649 126.014 144.424 125.276 144.957 C 124.541 145.486 123.61 145.776 122.653 145.776 C 122.203 145.776 121.891 145.798 121.668 145.842 C 121.467 145.881 121.368 145.924 121.253 146.016 C 121.086 146.15 121.027 146.241 120.976 146.447 C 120.943 146.579 120.933 146.68 120.938 146.82 C 120.944 146.985 120.955 147.137 120.974 147.305 C 121.08 147.922 121.23 148.58 121.432 149.319 C 121.63 150.047 121.881 150.715 122.202 151.368 C 122.515 152.003 122.865 152.479 123.31 152.879 C 123.727 153.252 124.116 153.401 124.677 153.401 C 125.17 153.401 125.499 153.324 125.806 153.144 C 126.13 152.955 126.337 152.763 126.518 152.488 C 126.71 152.197 126.821 151.955 126.889 151.685 C 126.749 151.696 126.601 151.701 126.45 151.701 C 125.341 151.701 124.294 151.071 123.512 150.017 C 123.267 149.667 123.025 149.254 122.812 148.821 C 122.603 148.395 122.411 147.959 122.245 147.533 L 122.025 146.972 L 122.615 146.86 C 123.342 146.723 124.063 146.436 124.857 145.98 C 125.647 145.526 126.317 144.968 126.936 144.25 C 127.543 143.544 127.932 142.791 128.159 141.88 C 128.375 141.013 128.356 140.38 128.107 139.797 C 127.858 139.212 127.486 138.825 126.849 138.495 C 126.2 138.159 125.448 138.001 124.466 138.001 C 123.795 138.001 123.088 138.082 122.293 138.252 C 121.505 138.421 120.764 138.678 120.013 139.05 C 119.461 139.299 119.059 139.558 118.754 139.85 C 118.469 140.123 118.302 140.426 118.185 140.897 C 118.166 140.972 118.153 141.036 118.144 141.093 C 118.24 141.062 118.321 141.031 118.403 140.994 L 119.197 140.637 L 119.103 141.504 C 119.065 141.867 119.003 142.257 118.922 142.652 C 118.842 143.04 118.756 143.417 118.668 143.772 C 118.42 144.768 118.111 145.783 117.749 146.794 C 117.39 147.799 117.038 148.722 116.695 149.56 C 116.506 150.056 116.318 150.56 116.13 151.083 C 115.944 151.599 115.815 152.004 115.736 152.322 C 115.618 152.798 115.598 153.047 115.645 153.214 C 115.689 153.367 115.653 153.329 115.723 153.354 C 115.875 153.407 115.988 153.426 116.146 153.426 C 116.75 153.426 117.193 153.311 117.623 153.049 Z M 140.14 154.451 C 139.498 154.451 138.867 154.086 138.557 153.533 C 138.273 153.029 138.088 152.193 138.002 151.143 C 137.961 150.644 137.943 150.145 137.952 149.668 L 138.933 148.585 C 138.612 148.939 138.297 149.219 138.045 149.354 C 138.018 149.369 137.989 149.382 137.96 149.396 C 137.976 148.984 138.012 148.574 138.066 148.183 L 137.896 149.423 C 137.644 149.522 137.322 149.576 137.005 149.576 C 136.185 149.576 135.315 149.563 134.401 149.538 C 133.491 149.513 132.952 149.5 132.331 149.484 C 132.266 149.67 132.241 149.74 132.14 150.045 C 132.041 150.345 131.958 150.631 131.886 150.922 C 131.822 151.178 131.772 151.422 131.732 151.678 C 131.69 151.948 131.649 152.193 131.603 152.446 C 131.49 153.026 131.102 153.6 130.529 153.933 C 129.982 154.251 129.3 154.426 128.621 154.426 C 128.28 154.426 127.881 154.296 127.692 154.084 C 127.494 153.862 127.43 153.427 127.511 153.105 C 127.591 152.783 127.793 152.31 128.089 151.731 C 128.265 151.354 128.409 151.037 128.526 150.766 C 128.638 150.504 128.705 150.322 128.74 150.18 C 128.787 149.989 128.793 149.905 128.775 149.811 C 128.768 149.777 128.774 149.767 128.777 149.764 C 128.775 149.765 128.768 149.766 128.754 149.763 C 128.605 149.654 128.438 149.474 128.371 149.312 C 128.301 149.146 128.288 148.883 128.333 148.705 C 128.393 148.464 128.527 148.159 128.702 147.852 C 128.877 147.548 129.091 147.246 129.318 146.985 C 129.545 146.723 129.829 146.482 130.024 146.354 C 130.182 146.277 130.382 146.2 130.582 146.144 C 130.79 146.086 130.889 146.074 131.068 146.052 C 132.193 144.17 133.216 142.741 134.378 141.366 C 135.544 139.985 136.719 138.887 137.854 138.124 C 139.006 137.348 140.175 136.926 141.21 136.926 C 141.552 136.926 141.912 137 142.161 137.129 C 142.423 137.266 142.68 137.543 142.798 137.815 C 143.01 138.307 142.97 139.131 142.734 140.097 L 142.454 141.222 C 142.038 142.886 141.785 144.394 141.683 145.787 C 141.582 147.181 141.601 148.283 141.744 149.13 C 141.862 150.003 142.12 150.637 142.576 151.17 C 142.756 151.368 142.916 151.603 142.973 151.802 C 143.026 151.991 143.029 152.253 142.98 152.447 C 142.899 152.773 142.666 153.142 142.371 153.432 C 142.088 153.711 141.723 153.967 141.347 154.15 C 140.959 154.339 140.518 154.451 140.14 154.451 Z M 140.908 153.252 C 141.215 153.102 141.446 152.941 141.67 152.72 C 141.883 152.51 141.967 152.379 142.01 152.205 C 142.028 152.132 142.028 152.136 142.011 152.075 C 141.996 152.023 141.97 151.978 141.838 151.846 C 141.299 151.181 140.907 150.27 140.756 149.28 C 140.606 148.361 140.581 147.154 140.686 145.715 C 140.791 144.275 141.06 142.682 141.484 140.98 L 141.764 139.855 C 141.986 138.987 142.005 138.503 141.88 138.212 C 141.828 138.092 141.812 138.075 141.699 138.016 C 141.572 137.95 141.452 137.926 141.21 137.926 C 140.345 137.926 139.463 138.246 138.412 138.953 C 137.343 139.673 136.27 140.675 135.142 142.011 C 134.009 143.352 132.901 144.931 131.795 146.782 L 131.66 147.009 L 131.399 147.025 C 131.166 147.039 131.001 147.066 130.851 147.108 C 130.692 147.152 130.594 147.187 130.492 147.238 C 130.377 147.312 130.265 147.42 130.072 147.642 C 129.878 147.865 129.72 148.087 129.57 148.35 C 129.426 148.601 129.348 148.776 129.307 148.932 C 129.309 148.933 129.311 148.934 129.314 148.935 C 129.505 149.091 129.707 149.37 129.756 149.616 C 129.8 149.839 129.779 150.146 129.71 150.422 C 129.662 150.614 129.568 150.873 129.444 151.161 C 129.324 151.44 129.172 151.776 128.992 152.162 C 128.708 152.713 128.542 153.102 128.481 153.347 C 128.468 153.399 128.457 153.421 128.449 153.429 C 128.46 153.432 128.487 153.426 128.621 153.426 C 129.176 153.426 129.597 153.318 130.026 153.069 C 130.427 152.835 130.593 152.659 130.613 152.306 C 130.658 152.059 130.703 151.788 130.744 151.524 C 130.788 151.246 130.846 150.958 130.915 150.68 C 130.992 150.371 131.086 150.049 131.191 149.732 C 131.294 149.42 131.401 149.11 131.51 148.806 L 131.632 148.468 L 131.992 148.476 C 132.705 148.493 133.518 148.514 134.429 148.539 C 135.336 148.564 136.192 148.576 137.005 148.576 C 137.289 148.576 137.434 148.547 137.572 148.473 C 137.724 148.391 137.91 148.229 138.189 147.917 L 139.229 146.751 L 137.11 146.751 C 136.699 146.751 136.189 146.763 135.57 146.788 C 134.948 146.813 134.224 146.842 133.399 146.876 L 132.492 146.912 L 132.945 146.126 C 133.989 144.319 135.083 142.839 136.194 141.745 C 137.323 140.632 138.454 140.001 139.393 140.001 C 139.584 140.001 139.806 140.038 139.954 140.101 C 140.124 140.174 140.331 140.369 140.405 140.539 C 140.521 140.805 140.482 141.298 140.354 141.822 L 139.993 143.272 C 139.853 143.833 139.733 144.364 139.63 144.874 C 139.527 145.389 139.435 145.875 139.352 146.339 L 139.279 146.751 L 139.275 146.751 L 139.056 148.319 C 138.996 148.755 138.962 149.188 138.953 149.649 C 138.943 150.111 138.958 150.572 138.999 151.059 C 139.073 152.04 139.215 152.664 139.429 153.044 C 139.614 153.374 139.748 153.451 140.14 153.451 C 140.395 153.451 140.612 153.396 140.908 153.252 Z M 134.28 145.839 C 134.735 145.821 134.907 145.814 135.53 145.789 C 136.157 145.764 136.687 145.751 137.11 145.751 L 138.442 145.751 C 138.506 145.406 138.546 145.197 138.65 144.678 C 138.755 144.155 138.88 143.602 139.023 143.03 L 139.384 141.58 C 139.467 141.256 139.496 141.09 139.497 141.004 C 139.474 141.002 139.443 141.001 139.393 141.001 C 138.699 141.001 137.931 141.437 136.895 142.457 C 135.84 143.497 135.138 144.451 134.28 145.839 Z M 147.635 154.476 C 146.166 154.476 145.007 154.047 144.489 153.265 C 143.988 152.508 143.882 151.419 144.172 150.255 C 144.247 149.955 144.366 149.587 144.52 149.176 C 144.67 148.773 144.862 148.279 145.087 147.71 C 145.422 146.899 145.699 146.182 145.924 145.547 C 146.146 144.917 146.348 144.236 146.537 143.48 C 146.754 142.607 146.755 142.573 146.834 142.201 C 146.823 142.201 146.81 142.201 146.795 142.201 C 146.646 142.201 146.409 142.117 146.295 142.012 C 146.188 141.914 146.088 141.711 146.061 141.572 C 146.018 141.351 146.051 141.015 146.135 140.68 C 146.265 140.158 146.524 139.653 146.855 139.281 C 147.18 138.916 147.67 138.564 148.257 138.261 C 148.844 137.947 149.573 137.667 150.393 137.444 C 151.221 137.218 152.11 137.101 152.993 137.101 C 154.453 137.101 155.638 137.492 156.281 138.22 C 156.925 138.951 157.125 140.039 156.843 141.172 C 156.664 141.887 156.325 142.595 155.871 143.201 C 155.422 143.801 155.302 143.884 154.961 144.192 C 155.578 144.449 155.944 144.585 156.379 145.288 C 156.812 145.987 156.886 147.014 156.61 148.122 C 156.315 149.303 155.682 150.433 154.778 151.394 C 153.881 152.348 152.76 153.118 151.504 153.659 C 150.276 154.191 148.953 154.476 147.635 154.476 Z M 151.102 152.743 C 152.27 152.251 153.224 151.587 154.05 150.708 C 154.87 149.836 155.377 148.933 155.639 147.88 C 155.878 146.922 155.839 146.315 155.529 145.814 C 155.222 145.317 154.734 145.032 153.815 144.894 L 152.57 144.707 L 153.612 143.99 C 154.207 143.581 154.671 143.135 155.071 142.601 C 155.466 142.074 155.718 141.548 155.872 140.93 C 156.105 139.996 156.004 139.418 155.531 138.882 C 155.056 138.344 154.298 138.101 152.993 138.101 C 152.175 138.101 151.419 138.201 150.655 138.408 C 149.884 138.619 149.259 138.855 148.73 139.141 C 148.209 139.405 147.855 139.661 147.602 139.946 C 147.354 140.224 147.208 140.51 147.105 140.922 C 147.088 140.992 147.074 141.051 147.063 141.102 C 147.117 141.077 147.18 141.045 147.255 141.006 L 148.132 140.549 L 147.977 141.529 C 147.887 142.093 147.729 142.831 147.507 143.722 C 147.313 144.499 147.097 145.226 146.866 145.88 C 146.637 146.529 146.352 147.267 146.013 148.088 C 145.79 148.652 145.605 149.129 145.456 149.526 C 145.311 149.915 145.209 150.23 145.143 150.497 C 144.893 151.5 144.952 152.152 145.323 152.712 C 145.677 153.247 146.337 153.476 147.635 153.476 C 148.85 153.476 149.972 153.244 151.102 152.743 Z M 147.08 150.983 C 146.618 150.497 146.514 149.588 146.759 148.605 C 146.834 148.304 146.964 147.906 147.141 147.437 C 147.314 146.976 147.539 146.4 147.806 145.732 C 148.211 144.773 148.561 143.859 148.864 142.976 C 149.166 142.094 149.415 141.261 149.616 140.455 L 149.691 140.154 L 149.993 140.088 C 150.843 139.901 151.578 139.801 152.144 139.801 C 152.932 139.801 153.626 139.982 154.009 140.32 C 154.417 140.681 154.569 141.366 154.412 141.997 C 154.045 143.468 152.572 144.558 150.317 145.133 C 150.127 145.148 150.144 145.176 150.095 145.372 C 150.002 145.746 150.014 145.925 150.129 146.133 C 150.232 146.319 150.248 146.326 150.493 146.326 C 150.688 146.326 150.87 146.309 151.02 146.28 C 151.444 146.229 151.814 146.201 152.099 146.201 C 152.797 146.201 153.47 146.384 153.951 146.714 C 154.23 146.905 154.471 147.252 154.553 147.579 C 154.631 147.89 154.614 148.307 154.516 148.697 C 154.364 149.308 153.979 149.909 153.458 150.356 C 152.951 150.79 152.298 151.143 151.593 151.365 C 150.895 151.586 150.113 151.701 149.327 151.701 C 148.355 151.701 147.522 151.448 147.08 150.983 Z M 149.327 150.701 C 150.04 150.701 150.669 150.608 151.292 150.412 C 151.907 150.217 152.381 149.962 152.807 149.596 C 153.219 149.243 153.433 148.911 153.546 148.455 C 153.619 148.162 153.627 147.995 153.583 147.823 C 153.544 147.667 153.518 147.63 153.385 147.538 C 153.04 147.302 152.667 147.201 152.099 147.201 C 151.85 147.201 151.555 147.222 151.154 147.271 C 150.957 147.305 150.73 147.326 150.493 147.326 C 150.003 147.326 149.486 147.033 149.255 146.619 C 149.044 146.239 148.997 145.69 149.114 145.178 C 148.991 145.487 148.863 145.8 148.73 146.116 C 148.465 146.779 148.248 147.334 148.077 147.79 C 147.908 148.238 147.795 148.581 147.729 148.847 C 147.525 149.664 147.553 150.03 147.804 150.294 C 148.075 150.579 148.498 150.701 149.327 150.701 Z M 149.252 144.825 C 149.43 144.525 149.736 144.283 150.053 144.169 C 152.13 143.677 153.152 142.918 153.442 141.755 C 153.546 141.336 153.532 141.233 153.346 141.069 C 153.135 140.882 152.807 140.801 152.144 140.801 C 151.644 140.801 151.175 140.864 150.508 141 C 150.315 141.737 150.119 142.399 149.81 143.301 C 149.64 143.797 149.454 144.305 149.252 144.825 Z M 158.673 154.426 C 158.187 154.426 157.682 154.24 157.408 153.936 C 157.104 153.6 157.066 152.888 157.249 152.155 C 157.336 151.804 157.487 151.344 157.69 150.801 C 157.89 150.267 158.094 149.722 158.294 149.189 C 158.77 148.01 159.154 146.997 159.451 146.138 C 159.747 145.282 160.003 144.419 160.225 143.53 C 160.429 142.71 160.571 141.966 160.656 141.266 C 160.735 140.609 160.673 140.09 160.456 139.648 C 160.364 139.383 160.313 139.065 160.365 138.855 C 160.44 138.557 160.708 138.209 161.034 137.948 C 161.344 137.7 161.727 137.477 162.121 137.314 C 162.521 137.148 162.941 137.051 163.281 137.051 C 163.607 137.051 163.976 137.157 164.195 137.331 C 164.421 137.511 164.601 137.861 164.642 138.173 C 164.71 138.687 164.647 139.353 164.467 140.072 C 164.361 140.5 164.202 141.034 163.996 141.658 C 163.791 142.277 163.587 142.877 163.384 143.454 C 163.181 144.033 163.013 144.486 162.882 144.809 C 162.547 145.688 162.255 146.499 161.998 147.26 C 161.743 148.019 161.554 148.65 161.423 149.172 C 161.272 149.778 161.211 150.24 161.227 150.631 C 161.24 150.988 161.305 151.2 161.505 151.406 C 161.724 151.709 161.853 152.162 161.763 152.522 C 161.637 153.027 161.219 153.536 160.669 153.885 C 160.12 154.234 159.404 154.426 158.673 154.426 Z M 160.132 153.041 C 160.552 152.775 160.719 152.575 160.793 152.28 C 160.828 152.14 160.853 152.143 160.738 152.047 C 160.449 151.686 160.247 151.181 160.227 150.671 C 160.209 150.195 160.288 149.591 160.453 148.93 C 160.589 148.385 160.79 147.716 161.051 146.942 C 161.31 146.17 161.611 145.335 161.949 144.448 C 162.075 144.139 162.241 143.694 162.441 143.123 C 162.642 142.55 162.843 141.959 163.046 141.344 C 163.247 140.735 163.396 140.236 163.497 139.83 C 163.658 139.183 163.704 138.707 163.651 138.304 C 163.632 138.157 163.637 138.164 163.574 138.114 C 163.505 138.06 163.47 138.051 163.281 138.051 C 163.054 138.051 162.828 138.104 162.503 138.238 C 162.172 138.375 161.912 138.527 161.659 138.729 C 161.423 138.918 161.361 138.995 161.335 139.097 C 161.33 139.121 161.318 139.111 161.385 139.279 C 161.64 139.868 161.742 140.61 161.648 141.386 C 161.559 142.12 161.406 142.925 161.195 143.772 C 160.968 144.683 160.7 145.587 160.397 146.464 C 160.095 147.338 159.702 148.372 159.223 149.557 C 159.024 150.089 158.826 150.618 158.627 151.151 C 158.431 151.675 158.298 152.081 158.219 152.397 C 158.07 152.997 158.062 153.169 158.15 153.266 C 158.267 153.396 158.358 153.426 158.673 153.426 C 159.275 153.426 159.711 153.31 160.132 153.041 Z M 164.95 154.426 C 164.708 154.426 164.429 154.378 164.198 154.298 C 163.884 154.189 163.586 153.835 163.487 153.488 C 163.393 153.155 163.431 152.638 163.57 152.08 C 163.657 151.731 163.801 151.278 163.993 150.744 C 164.183 150.217 164.379 149.689 164.572 149.187 C 164.911 148.359 165.256 147.453 165.612 146.458 C 165.965 145.469 166.26 144.501 166.502 143.53 C 166.588 143.185 166.668 142.829 166.746 142.45 C 166.768 142.347 166.787 142.245 166.805 142.146 C 166.772 142.149 166.74 142.151 166.71 142.151 C 166.547 142.151 166.292 142.063 166.17 141.945 C 166.051 141.83 165.954 141.591 165.94 141.43 C 165.922 141.208 165.952 140.922 166.018 140.655 C 166.167 140.06 166.473 139.504 166.866 139.127 C 167.24 138.769 167.77 138.432 168.381 138.15 C 169.186 137.756 170.038 137.456 170.888 137.275 C 171.73 137.095 172.542 137.001 173.27 137.001 C 174.355 137.001 175.345 137.21 176.113 137.607 C 176.893 138.011 177.513 138.657 177.832 139.405 C 178.151 140.155 178.183 141.122 177.933 142.122 C 177.678 143.144 177.181 144.108 176.498 144.902 C 175.825 145.683 175.024 146.351 174.16 146.847 C 173.301 147.34 172.838 147.51 172.197 147.697 C 172.296 147.924 172.314 147.973 172.514 148.381 C 172.71 148.781 172.906 149.119 173.129 149.435 C 173.756 150.348 174.397 150.701 175.254 150.701 C 175.504 150.701 175.701 150.687 175.888 150.657 C 176.006 150.638 176.207 150.662 176.32 150.716 C 176.433 150.77 176.577 150.912 176.636 151.016 C 176.753 151.223 176.744 151.606 176.665 151.922 C 176.575 152.283 176.393 152.682 176.157 153.039 C 175.91 153.414 175.532 153.764 175.115 154.008 C 174.681 154.261 174.088 154.401 173.481 154.401 C 172.742 154.401 171.997 154.116 171.447 153.623 C 170.925 153.156 170.46 152.524 170.109 151.809 C 169.767 151.112 169.482 150.355 169.271 149.583 C 169.063 148.822 168.898 148.079 168.786 147.433 C 168.764 147.24 168.749 147.042 168.742 146.857 C 168.735 146.647 168.76 146.406 168.81 146.205 C 168.9 145.844 169.141 145.469 169.432 145.236 C 169.649 145.062 169.972 144.921 170.279 144.86 C 170.564 144.804 170.973 144.776 171.457 144.776 C 172.266 144.776 172.889 144.582 173.495 144.145 C 174.097 143.711 174.425 143.236 174.595 142.555 C 174.686 142.189 174.694 141.957 174.632 141.723 C 174.573 141.501 174.502 141.399 174.304 141.256 C 173.847 140.925 173.289 140.776 172.453 140.776 C 171.756 140.776 171.184 140.86 170.464 141.039 C 170.141 142.132 169.79 143.12 169.255 144.526 C 168.949 145.356 168.658 146.174 168.381 146.987 C 168.105 147.795 167.889 148.517 167.726 149.172 C 167.586 149.731 167.521 150.183 167.52 150.591 C 167.518 150.952 167.586 151.187 167.798 151.426 C 168.018 151.756 168.14 152.223 168.047 152.597 C 167.928 153.074 167.503 153.564 166.948 153.903 C 166.394 154.241 165.679 154.426 164.95 154.426 Z M 166.427 153.049 C 166.854 152.788 167.013 152.611 167.076 152.355 C 167.116 152.196 167.131 152.164 167 152.028 C 166.708 151.635 166.517 151.108 166.52 150.586 C 166.522 150.11 166.604 149.538 166.755 148.93 C 166.924 148.252 167.153 147.49 167.434 146.665 C 167.714 145.845 168.009 145.014 168.318 144.178 C 168.848 142.785 169.27 141.557 169.587 140.484 L 169.666 140.216 L 169.935 140.144 C 170.822 139.904 171.684 139.776 172.453 139.776 C 173.418 139.776 174.289 140.01 174.891 140.446 C 175.222 140.686 175.496 141.08 175.598 141.467 C 175.697 141.84 175.682 142.329 175.565 142.797 C 175.353 143.649 174.818 144.424 174.08 144.957 C 173.345 145.486 172.414 145.776 171.457 145.776 C 171.007 145.776 170.695 145.798 170.472 145.842 C 170.271 145.881 170.172 145.924 170.057 146.016 C 169.89 146.15 169.831 146.241 169.78 146.447 C 169.747 146.579 169.737 146.68 169.742 146.82 C 169.748 146.985 169.759 147.137 169.778 147.305 C 169.884 147.922 170.034 148.58 170.236 149.319 C 170.434 150.047 170.685 150.715 171.006 151.368 C 171.319 152.003 171.669 152.479 172.114 152.879 C 172.531 153.252 172.92 153.401 173.481 153.401 C 173.974 153.401 174.303 153.324 174.61 153.144 C 174.934 152.955 175.141 152.763 175.322 152.488 C 175.514 152.197 175.625 151.955 175.693 151.685 C 175.553 151.696 175.405 151.701 175.254 151.701 C 174.145 151.701 173.098 151.071 172.316 150.017 C 172.071 149.667 171.829 149.254 171.616 148.821 C 171.407 148.395 171.215 147.959 171.049 147.533 L 170.829 146.972 L 171.419 146.86 C 172.146 146.723 172.867 146.436 173.661 145.98 C 174.451 145.526 175.121 144.968 175.74 144.25 C 176.347 143.544 176.736 142.791 176.963 141.88 C 177.179 141.013 177.16 140.38 176.912 139.797 C 176.662 139.212 176.29 138.825 175.653 138.495 C 175.004 138.159 174.252 138.001 173.27 138.001 C 172.599 138.001 171.892 138.082 171.097 138.252 C 170.309 138.421 169.568 138.678 168.817 139.05 C 168.265 139.299 167.863 139.558 167.558 139.85 C 167.273 140.123 167.106 140.426 166.989 140.897 C 166.97 140.972 166.957 141.036 166.948 141.093 C 167.044 141.062 167.125 141.031 167.207 140.994 L 168.001 140.637 L 167.908 141.504 C 167.869 141.867 167.807 142.257 167.726 142.652 C 167.646 143.04 167.561 143.417 167.472 143.772 C 167.224 144.768 166.915 145.783 166.553 146.794 C 166.194 147.799 165.842 148.722 165.499 149.56 C 165.31 150.056 165.122 150.56 164.934 151.083 C 164.748 151.599 164.619 152.004 164.54 152.322 C 164.422 152.798 164.402 153.047 164.449 153.214 C 164.493 153.367 164.457 153.329 164.527 153.354 C 164.679 153.407 164.792 153.426 164.95 153.426 C 165.554 153.426 165.997 153.311 166.427 153.049 Z" style="fill: none;"/>
  <text style="white-space: pre; fill: rgb(51, 51, 51); font-family: Arial, sans-serif; font-size: 15.7px;" x="113.356" y="158.81"> </text>
  <text style="white-space: pre; fill: rgb(51, 51, 51); font-family: Arial, sans-serif; font-size: 15.7px;" x="136.925" y="143.659"> </text>
  <text style="fill: rgb(51, 51, 51); font-family: Arial, sans-serif; font-size: 49px; white-space: pre;" x="177.329" y="152.076"> </text>
  <text style="white-space: pre; fill: rgb(51, 51, 51); font-family: Arial, sans-serif; font-size: 15.7px;" x="158.81" y="140.853"> </text>
</svg>